<svg preserveAspectRatio="none" width="100%" height="100%" overflow="visible" style="display: block;" viewBox="0 0 16 16" fill="none" xmlns="http://www.w3.org/2000/svg">
<g id="Icon">
<path id="Vector" fill-rule="evenodd" clip-rule="evenodd" d="M8 1C7.07174 1 6.1815 1.36875 5.52513 2.02513C4.86875 2.6815 4.5 3.57174 4.5 4.5V7C4.10218 7 3.72064 7.15804 3.43934 7.43934C3.15804 7.72064 3 8.10218 3 8.5V13.5C3 13.8978 3.15804 14.2794 3.43934 14.5607C3.72064 14.842 4.10218 15 4.5 15H11.5C11.8978 15 12.2794 14.842 12.5607 14.5607C12.842 14.2794 13 13.8978 13 13.5V8.5C13 8.10218 12.842 7.72064 12.5607 7.43934C12.2794 7.15804 11.8978 7 11.5 7V4.5C11.5 3.57174 11.1313 2.6815 10.4749 2.02513C9.8185 1.36875 8.92826 1 8 1ZM10 7V4.5C10 3.96957 9.78929 3.46086 9.41421 3.08579C9.03914 2.71071 8.53043 2.5 8 2.5C7.46957 2.5 6.96086 2.71071 6.58579 3.08579C6.21071 3.46086 6 3.96957 6 4.5V7H10Z" fill="var(--fill-0, #9E9E99)"/>
</g>
</svg>
