<svg preserveAspectRatio="none" width="100%" height="100%" overflow="visible" style="display: block;" viewBox="0 0 12 12" fill="none" xmlns="http://www.w3.org/2000/svg">
<g id="Icon">
<path id="Vector" fill-rule="evenodd" clip-rule="evenodd" d="M6 0.75C5.30381 0.75 4.63613 1.02656 4.14384 1.51884C3.65156 2.01113 3.375 2.67881 3.375 3.375V5.25C3.07663 5.25 2.79048 5.36853 2.5795 5.5795C2.36853 5.79048 2.25 6.07663 2.25 6.375V10.125C2.25 10.4234 2.36853 10.7095 2.5795 10.9205C2.79048 11.1315 3.07663 11.25 3.375 11.25H8.625C8.92337 11.25 9.20952 11.1315 9.4205 10.9205C9.63147 10.7095 9.75 10.4234 9.75 10.125V6.375C9.75 6.07663 9.63147 5.79048 9.4205 5.5795C9.20952 5.36853 8.92337 5.25 8.625 5.25V3.375C8.625 2.67881 8.34844 2.01113 7.85616 1.51884C7.36387 1.02656 6.69619 0.75 6 0.75ZM7.5 5.25V3.375C7.5 2.97718 7.34196 2.59564 7.06066 2.31434C6.77936 2.03304 6.39782 1.875 6 1.875C5.60218 1.875 5.22064 2.03304 4.93934 2.31434C4.65804 2.59564 4.5 2.97718 4.5 3.375V5.25H7.5Z" fill="var(--fill-0, #ACADA8)"/>
</g>
</svg>
