<svg width="237" height="233" viewBox="0 0 237 233" fill="none" xmlns="http://www.w3.org/2000/svg">
<g clip-path="url(#clip0_334_405)">
<g filter="url(#filter0_d_334_405)">
<path d="M104.398 16.2904C112.75 9.92731 124.323 9.92731 132.675 16.2904L152.435 31.3441C154.945 33.257 157.818 34.6405 160.879 35.4109L184.969 41.4735C195.151 44.036 202.367 53.0847 202.599 63.5819L203.15 88.4161C203.22 91.5719 203.929 94.6806 205.235 97.5541L215.515 120.168C219.86 129.726 217.284 141.01 209.222 147.737L190.149 163.651C187.726 165.673 185.738 168.166 184.305 170.979L173.034 193.115C168.27 202.472 157.843 207.493 147.557 205.384L123.223 200.394C120.131 199.76 116.942 199.76 113.85 200.394L89.516 205.384C79.2302 207.493 68.8027 202.472 64.0386 193.115L52.7678 170.979C51.3355 168.166 49.3474 165.673 46.9238 163.651L27.8506 147.737C19.7886 141.01 17.2132 129.726 21.5582 120.168L31.8377 97.5541C33.1439 94.6806 33.8535 91.5719 33.9234 88.4161L34.4736 63.5819C34.7061 53.0847 41.9222 44.036 52.1045 41.4735L76.1936 35.4109C79.2547 34.6405 82.1276 33.257 84.6384 31.3441L104.398 16.2904Z" fill="#A8F28E"/>
<path d="M101.064 11.915C111.385 4.05202 125.688 4.05196 136.009 11.915L155.768 26.9687C157.686 28.4307 159.882 29.4884 162.222 30.0771L186.311 36.1396C198.893 39.3063 207.81 50.4882 208.098 63.46L208.648 88.2939C208.702 90.7057 209.244 93.0822 210.242 95.2783L220.521 117.892C225.891 129.704 222.709 143.647 212.746 151.96L193.673 167.874C191.821 169.419 190.302 171.325 189.207 173.475L177.936 195.61C172.048 207.173 159.163 213.378 146.452 210.771L122.118 205.782C119.755 205.298 117.318 205.298 114.955 205.782L90.6211 210.771C77.9106 213.378 65.0249 207.173 59.1377 195.61L47.8662 173.475C46.7717 171.325 45.2526 169.419 43.4004 167.874L24.3271 151.96C14.3646 143.647 11.1815 129.703 16.5508 117.892L26.8311 95.2783C27.8294 93.0822 28.3714 90.7057 28.4248 88.2939L28.9746 63.46C29.262 50.4883 38.1793 39.3065 50.7617 36.1396L74.8516 30.0771C77.1909 29.4884 79.3868 28.4307 81.3057 26.9687L101.064 11.915Z" stroke="white" stroke-width="11"/>
</g>
<path d="M96.728 125.294C80.4964 125.294 67.857 113.453 67.857 97.0885C67.857 80.5906 80.4964 69.0156 98.1916 69.0156H130.655V69.6808L124.535 81.389H121.874C125.998 85.5133 128.393 90.9682 128.393 97.2215C128.393 104.672 125.067 111.324 120.144 114.784V115.183C126.664 118.376 130.788 126.359 130.788 135.406C130.788 151.504 117.483 162.813 98.0585 162.813C83.5563 162.813 71.1832 156.56 64.7969 146.182L76.3718 135.805C81.1615 143.256 89.4105 147.912 98.4576 147.912C107.638 147.912 114.024 142.989 114.024 135.805C114.024 129.419 109.367 125.161 102.848 125.161C100.852 125.161 100.054 125.294 96.728 125.294ZM84.2217 97.0885C84.2217 104.805 89.9426 110.659 98.0585 110.659C106.174 110.659 112.161 104.805 112.161 97.0885C112.161 89.7707 106.174 83.6507 98.0585 83.6507C90.0757 83.6507 84.2217 89.6377 84.2217 97.0885Z" fill="url(#paint0_linear_334_405)"/>
<path d="M159.331 66.319C159.331 61.2451 155.218 57.1318 150.144 57.1318C145.07 57.1318 140.957 61.2451 140.957 66.319V161.74C140.957 166.814 145.07 170.927 150.144 170.927C155.218 170.927 159.331 166.814 159.331 161.74V66.319Z" fill="#5AD05E"/>
</g>
<defs>
<filter id="filter0_d_334_405" x="0.5946" y="0.518555" width="235.885" height="232.084" filterUnits="userSpaceOnUse" color-interpolation-filters="sRGB">
<feFlood flood-opacity="0" result="BackgroundImageFix"/>
<feColorMatrix in="SourceAlpha" type="matrix" values="0 0 0 0 0 0 0 0 0 0 0 0 0 0 0 0 0 0 127 0" result="hardAlpha"/>
<feOffset dy="7.87024"/>
<feGaussianBlur stdDeviation="3.93512"/>
<feComposite in2="hardAlpha" operator="out"/>
<feColorMatrix type="matrix" values="0 0 0 0 0 0 0 0 0 0 0 0 0 0 0 0 0 0 0.12 0"/>
<feBlend mode="normal" in2="BackgroundImageFix" result="effect1_dropShadow_334_405"/>
<feBlend mode="normal" in="SourceGraphic" in2="effect1_dropShadow_334_405" result="shape"/>
</filter>
<linearGradient id="paint0_linear_334_405" x1="97.7925" y1="69.0156" x2="97.7925" y2="162.813" gradientUnits="userSpaceOnUse">
<stop stop-color="#005723"/>
<stop offset="1" stop-color="#004126"/>
</linearGradient>
<clipPath id="clip0_334_405">
<rect width="237" height="233" fill="white"/>
</clipPath>
</defs>
</svg>
