<svg width="290" height="280" viewBox="0 0 290 280" fill="none" xmlns="http://www.w3.org/2000/svg">
<g clip-path="url(#clip0_334_436)">
<g filter="url(#filter0_d_334_436)">
<path d="M144.931 9.95215C212.1 9.95215 267.999 60.0588 267.999 123.553C267.999 187.047 212.1 237.154 144.931 237.154C134.424 237.154 124.195 235.943 114.419 233.639C101.313 241.862 85.8054 246.617 69.2097 246.62L69.2106 246.621C69.208 246.621 69.2055 246.62 69.2029 246.62C69.201 246.62 69.199 246.621 69.197 246.621C64.1327 246.627 59.0779 246.18 54.0933 245.285C50.7612 244.686 48.0022 242.354 46.8576 239.168C45.7131 235.982 46.3569 232.428 48.5461 229.845C53.1579 224.406 56.4753 217.991 58.2477 211.084C58.9844 208.203 57.7379 203.99 53.227 199.317L52.3225 198.374C33.4413 178.481 21.8633 152.319 21.8633 123.553C21.8633 60.0588 77.762 9.95215 144.931 9.95215Z" fill="white"/>
<path d="M144.931 9.95215C212.1 9.95215 267.999 60.0588 267.999 123.553C267.999 187.047 212.1 237.154 144.931 237.154C134.424 237.154 124.195 235.943 114.419 233.639C101.313 241.862 85.8054 246.617 69.2097 246.62L69.2106 246.621C69.208 246.621 69.2055 246.62 69.2029 246.62C69.201 246.62 69.199 246.621 69.197 246.621C64.1327 246.627 59.0779 246.18 54.0933 245.285C50.7612 244.686 48.0022 242.354 46.8576 239.168C45.7131 235.982 46.3569 232.428 48.5461 229.845C53.1579 224.406 56.4753 217.991 58.2477 211.084C58.9844 208.203 57.7379 203.99 53.227 199.317L52.3225 198.374C33.4413 178.481 21.8633 152.319 21.8633 123.553C21.8633 60.0588 77.762 9.95215 144.931 9.95215Z" fill="url(#paint0_linear_334_436)"/>
<path d="M144.931 5.17773C214.327 5.17773 272.772 57.0304 272.772 123.553C272.772 190.075 214.327 241.928 144.931 241.928C134.743 241.928 124.8 240.827 115.25 238.724C101.785 246.76 86.0423 251.382 69.2529 251.393C69.2412 251.393 69.2295 251.395 69.2178 251.395C69.2149 251.395 69.2118 251.394 69.209 251.394C69.2067 251.394 69.2044 251.394 69.2021 251.394L69.2031 251.395C63.8536 251.402 58.514 250.929 53.249 249.983C48.2368 249.083 44.0862 245.575 42.3643 240.782C40.6426 235.99 41.6111 230.642 44.9043 226.758H44.9053C49.0497 221.87 52.0303 216.105 53.623 209.897C53.7627 209.34 53.7851 206.769 49.792 202.632L49.7822 202.622L48.8779 201.68C48.8719 201.673 48.8653 201.666 48.8594 201.66C29.2076 180.955 17.0889 153.641 17.0889 123.553C17.0891 57.0305 75.5347 5.17788 144.931 5.17773ZM68.4307 251.331C68.4382 251.332 68.4505 251.335 68.4658 251.337C68.4816 251.339 68.5024 251.342 68.5264 251.346C68.5504 251.349 68.579 251.353 68.6113 251.357C68.6438 251.361 68.6816 251.366 68.7227 251.37C68.7635 251.374 68.809 251.378 68.8584 251.382C68.8872 251.384 68.9182 251.383 68.9502 251.385C68.9206 251.383 68.8921 251.384 68.8652 251.382C68.8152 251.378 68.7689 251.374 68.7275 251.37C68.6863 251.366 68.649 251.362 68.6162 251.357C68.5834 251.353 68.5537 251.349 68.5293 251.346C68.505 251.342 68.4839 251.339 68.4678 251.337C68.4522 251.334 68.4395 251.332 68.4316 251.331L68.4219 251.329C68.4238 251.329 68.427 251.33 68.4307 251.331ZM70.04 251.319C70.0489 251.318 70.0574 251.317 70.0654 251.315C70.0952 251.31 70.121 251.305 70.1406 251.301C70.16 251.297 70.1761 251.294 70.1855 251.292H70.1846C70.1366 251.302 70.0884 251.311 70.04 251.319Z" stroke="white" stroke-width="9.54812" stroke-linecap="round" stroke-linejoin="round"/>
</g>
<path d="M102.614 49.0157V91.5693H94.3445V49.0157H102.614ZM123.33 60.1822C130.151 60.1822 135.643 64.1056 137.696 70.3227L117.535 82.455C119.225 84.4469 121.821 85.6541 124.899 85.6541C128.762 85.6541 132.987 83.7829 135.643 80.8857V88.8531C132.927 91.0865 128.762 92.4747 124.296 92.4747C114.578 92.4747 107.878 85.9559 107.878 76.3587C107.878 66.9425 114.457 60.1822 123.33 60.1822ZM115.242 75.7551C115.242 76.0569 115.242 76.3587 115.302 76.6605L128.4 68.8137C127.072 67.3651 125.261 66.5804 123.088 66.5804C118.501 66.5804 115.242 70.3227 115.242 75.7551ZM152.885 79.437C152.885 83.119 154.394 85.0505 157.774 85.0505C158.558 85.0505 159.343 84.9298 160.067 84.6883V91.509C159.343 91.8711 157.593 92.0522 155.963 92.0522C148.539 92.0522 144.615 88.1892 144.615 80.946V67.9083H141.295V61.0876H144.615V54.1463H152.885V61.0876H160.067V67.9083H152.885V79.437ZM164.408 62.3552L168.029 49.0157H175.936L170.866 62.3552H164.408ZM175.256 69.4776C175.256 63.7435 179.361 60.1822 186 60.1822C188.837 60.1822 191.553 60.8462 193.364 61.8723V68.6326C191.674 67.3651 189.018 66.52 186.785 66.52C184.371 66.52 182.982 67.4858 182.982 69.2362C182.982 73.5821 194.571 73.0389 194.571 82.3343C194.571 88.4306 189.924 92.4747 182.982 92.4747C180.085 92.4747 176.946 91.7504 175.136 90.7243V83.6622C176.946 85.1108 179.904 86.137 182.379 86.137C185.155 86.137 186.845 84.8694 186.845 82.8775C186.845 77.7469 175.256 78.8938 175.256 69.4776ZM110.503 186.437C110.503 190.119 112.012 192.05 115.392 192.05C116.177 192.05 116.961 191.93 117.686 191.688V198.509C116.961 198.871 115.211 199.052 113.581 199.052C106.157 199.052 102.234 195.189 102.234 187.946V174.908H98.9139V168.088H102.234V161.146H110.503V168.088H117.686V174.908H110.503L110.503 186.437ZM139.591 167.182C145.747 167.182 149.792 171.287 149.792 177.262V198.569H141.583V179.616C141.583 176.055 139.772 174.063 136.754 174.063C133.374 174.063 131.261 176.478 131.261 180.28V198.569H122.992L122.992 156.016H131.261V170.683H131.563C132.891 168.571 135.969 167.182 139.591 167.182ZM155.101 159.939C155.101 157.163 157.154 155.231 159.93 155.231C162.707 155.231 164.638 157.163 164.638 159.939C164.638 162.776 162.707 164.707 159.93 164.707C157.154 164.707 155.101 162.776 155.101 159.939ZM155.765 168.088H164.035V198.569H155.765V168.088ZM169.48 176.478C169.48 170.743 173.584 167.182 180.224 167.182C183.061 167.182 185.777 167.846 187.588 168.872V175.633C185.898 174.365 183.242 173.52 181.008 173.52C178.594 173.52 177.206 174.486 177.206 176.236C177.206 180.582 188.795 180.039 188.795 189.334C188.795 195.431 184.147 199.475 177.206 199.475C174.308 199.475 171.17 198.75 169.359 197.724V190.662C171.17 192.111 174.127 193.137 176.602 193.137C179.379 193.137 181.069 191.869 181.069 189.878C181.069 184.747 169.48 185.894 169.48 176.478Z" fill="#288E2B" fill-opacity="0.8"/>
<path d="M60.2134 139.62C52.8495 139.62 47.1153 134.248 47.1153 126.824C47.1153 119.339 52.8495 114.088 60.8773 114.088H75.6051V114.389L72.8286 119.701H71.6214C73.4925 121.572 74.579 124.047 74.579 126.884C74.579 130.264 73.07 133.282 70.8367 134.851V135.032C73.7943 136.481 75.6655 140.103 75.6655 144.207C75.6655 151.511 69.6295 156.641 60.817 156.641C54.2377 156.641 48.6243 153.804 45.727 149.096L50.9783 144.388C53.1513 147.768 56.8936 149.881 60.998 149.881C65.1629 149.881 68.0601 147.648 68.0601 144.388C68.0601 141.491 65.9475 139.559 62.9899 139.559C62.0845 139.559 61.7224 139.62 60.2134 139.62ZM54.5395 126.824C54.5395 130.324 57.135 132.98 60.817 132.98C64.4989 132.98 67.2151 130.324 67.2151 126.824C67.2151 123.504 64.4989 120.727 60.817 120.727C57.1954 120.727 54.5395 123.443 54.5395 126.824ZM97.0758 114.088V121.089C92.3677 121.089 89.4101 123.685 89.4101 127.548V144.569H81.1408V114.088H89.1686V117.407H89.4704C90.8587 115.295 93.6956 114.088 97.0758 114.088ZM116.454 142.638H116.152C114.643 144.449 112.108 145.475 108.969 145.475C102.329 145.475 97.6817 141.008 97.6817 134.61C97.6817 128.212 102.39 123.926 109.15 123.926C111.927 123.926 114.341 124.651 116.031 125.858V124.228C116.031 121.21 114.1 119.761 109.814 119.761C107.098 119.761 104.08 120.305 101.967 121.089L102.933 114.208C105.589 113.544 108.305 113.303 111.142 113.303C120.558 113.303 124.24 116.261 124.24 123.624V144.569H116.695L116.454 142.638ZM105.528 134.489C105.528 137.387 107.822 139.439 111.021 139.439C114.16 139.439 116.393 137.387 116.393 134.489C116.393 131.713 114.16 129.66 111.021 129.66C107.822 129.66 105.528 131.713 105.528 134.489ZM157.042 144.569H148.833V125.677C148.833 122.055 147.022 120.063 144.004 120.063C140.624 120.063 138.511 122.478 138.511 126.28V144.569H130.242V114.088H138.33V116.864H138.572C140.02 114.691 143.159 113.182 146.841 113.182C152.998 113.182 157.042 117.287 157.042 123.262V144.569ZM161.989 129.298C161.989 119.882 168.689 113.182 178.407 113.182C188.125 113.182 194.825 119.882 194.825 129.298C194.825 138.775 188.125 145.475 178.407 145.475C168.689 145.475 161.989 138.775 161.989 129.298ZM169.595 129.238C169.595 134.731 173.277 138.654 178.407 138.654C183.538 138.654 187.22 134.731 187.22 129.238C187.22 123.926 183.538 120.003 178.407 120.003C173.277 120.003 169.595 123.926 169.595 129.238ZM208.361 102.016V144.569H200.092V102.016H208.361ZM232.458 142.638H232.156C230.647 144.449 228.112 145.475 224.973 145.475C218.333 145.475 213.686 141.008 213.686 134.61C213.686 128.212 218.394 123.926 225.154 123.926C227.931 123.926 230.345 124.651 232.035 125.858V124.228C232.035 121.21 230.104 119.761 225.818 119.761C223.102 119.761 220.084 120.305 217.971 121.089L218.937 114.208C221.593 113.544 224.309 113.303 227.146 113.303C236.562 113.303 240.244 116.261 240.244 123.624V144.569H232.699L232.458 142.638ZM221.532 134.489C221.532 137.387 223.826 139.439 227.025 139.439C230.164 139.439 232.397 137.387 232.397 134.489C232.397 131.713 230.164 129.66 227.025 129.66C223.826 129.66 221.532 131.713 221.532 134.489Z" fill="#113712" fill-opacity="0.8"/>
</g>
<defs>
<filter id="filter0_d_334_436" x="0.614469" y="0.404297" width="288.634" height="279.169" filterUnits="userSpaceOnUse" color-interpolation-filters="sRGB">
<feFlood flood-opacity="0" result="BackgroundImageFix"/>
<feColorMatrix in="SourceAlpha" type="matrix" values="0 0 0 0 0 0 0 0 0 0 0 0 0 0 0 0 0 0 127 0" result="hardAlpha"/>
<feOffset dy="11.7019"/>
<feGaussianBlur stdDeviation="5.85097"/>
<feComposite in2="hardAlpha" operator="out"/>
<feColorMatrix type="matrix" values="0 0 0 0 0 0 0 0 0 0 0 0 0 0 0 0 0 0 0.12 0"/>
<feBlend mode="normal" in2="BackgroundImageFix" result="effect1_dropShadow_334_436"/>
<feBlend mode="normal" in="SourceGraphic" in2="effect1_dropShadow_334_436" result="shape"/>
</filter>
<linearGradient id="paint0_linear_334_436" x1="122.037" y1="9.87077" x2="197.554" y2="235.12" gradientUnits="userSpaceOnUse">
<stop offset="0.000789677" stop-color="#A8F28E" stop-opacity="0.5"/>
<stop offset="1" stop-color="#A8F28E"/>
</linearGradient>
<clipPath id="clip0_334_436">
<rect width="290" height="280" fill="white"/>
</clipPath>
</defs>
</svg>
