<svg width="1208" height="569" viewBox="0 0 1208 569" fill="none" xmlns="http://www.w3.org/2000/svg">
<g clip-path="url(#clip0_334_381)">
<g filter="url(#filter0_dd_334_381)">
<rect x="40.3438" y="35.4365" width="1127.57" height="489.564" rx="58.9273" fill="white" shape-rendering="crispEdges"/>
<path d="M225.915 242.658C205.604 242.658 189.789 227.842 189.789 207.365C189.789 186.722 205.604 172.239 227.746 172.239H268.366V173.071L260.708 187.721H257.379C262.54 192.882 265.536 199.707 265.536 207.532C265.536 216.854 261.374 225.178 255.215 229.507V230.006C263.372 234.002 268.533 243.99 268.533 255.311C268.533 275.454 251.885 289.605 227.579 289.605C209.433 289.605 193.951 281.781 185.96 268.795L200.443 255.81C206.437 265.133 216.758 270.96 228.079 270.96C239.566 270.96 247.557 264.8 247.557 255.81C247.557 247.819 241.73 242.492 233.572 242.492C231.075 242.492 230.076 242.658 225.915 242.658ZM210.266 207.365C210.266 217.021 217.424 224.346 227.579 224.346C237.734 224.346 245.226 217.021 245.226 207.365C245.226 198.209 237.734 190.551 227.579 190.551C217.591 190.551 210.266 198.042 210.266 207.365ZM327.584 172.239V191.55C314.599 191.55 306.441 198.708 306.441 209.363V256.31H283.634V172.239H305.776V181.395H306.608C310.437 175.568 318.261 172.239 327.584 172.239ZM381.03 250.982H380.197C376.035 255.977 369.043 258.807 360.387 258.807C342.074 258.807 329.255 246.487 329.255 228.841C329.255 211.194 342.241 199.374 360.886 199.374C368.544 199.374 375.203 201.372 379.864 204.702V200.207C379.864 191.883 374.537 187.887 362.717 187.887C355.226 187.887 346.902 189.386 341.075 191.55L343.739 172.571C351.064 170.74 358.555 170.074 366.38 170.074C392.35 170.074 402.505 178.232 402.505 198.542V256.31H381.696L381.03 250.982ZM350.897 228.508C350.897 236.499 357.224 242.159 366.047 242.159C374.704 242.159 380.863 236.499 380.863 228.508C380.863 220.85 374.704 215.19 366.047 215.19C357.224 215.19 350.897 220.85 350.897 228.508ZM492.975 256.31H470.334V204.202C470.334 194.214 465.34 188.72 457.016 188.72C447.694 188.72 441.867 195.379 441.867 205.867V256.31H419.059V172.239H441.367V179.896H442.033C446.029 173.903 454.686 169.741 464.841 169.741C481.821 169.741 492.975 181.062 492.975 197.543V256.31ZM506.621 214.191C506.621 188.22 525.1 169.741 551.903 169.741C578.706 169.741 597.185 188.22 597.185 214.191C597.185 240.328 578.706 258.807 551.903 258.807C525.1 258.807 506.621 240.328 506.621 214.191ZM527.597 214.024C527.597 229.174 537.753 239.995 551.903 239.995C566.054 239.995 576.209 229.174 576.209 214.024C576.209 199.374 566.054 188.553 551.903 188.553C537.753 188.553 527.597 199.374 527.597 214.024ZM634.519 138.943V256.31H611.711V138.943H634.519ZM700.978 250.982H700.146C695.984 255.977 688.992 258.807 680.335 258.807C662.023 258.807 649.204 246.487 649.204 228.841C649.204 211.194 662.189 199.374 680.835 199.374C688.493 199.374 695.152 201.372 699.813 204.702V200.207C699.813 191.883 694.486 187.887 682.666 187.887C675.174 187.887 666.851 189.386 661.024 191.55L663.688 172.571C671.013 170.74 678.504 170.074 686.328 170.074C712.299 170.074 722.454 178.232 722.454 198.542V256.31H701.644L700.978 250.982ZM670.846 228.508C670.846 236.499 677.172 242.159 685.995 242.159C694.652 242.159 700.812 236.499 700.812 228.508C700.812 220.85 694.652 215.19 685.995 215.19C677.172 215.19 670.846 220.85 670.846 228.508Z" fill="#103F23"/>
<rect x="751.445" y="146.277" width="274.012" height="125.991" rx="62.9953" fill="url(#paint0_linear_334_381)"/>
<g clip-path="url(#clip1_334_381)">
<path d="M803.121 245.591V241.762C803.121 239.21 803.558 236.691 804.431 234.206C805.304 231.654 806.446 229.169 807.857 226.751C809.267 224.333 810.812 221.948 812.491 219.597C814.238 217.179 815.95 214.828 817.63 212.545C819.309 210.194 820.854 207.877 822.264 205.593C823.675 203.309 824.816 201.059 825.69 198.843C826.563 196.626 826.999 194.443 826.999 192.294C826.999 190.346 826.798 188.734 826.395 187.458C825.992 186.182 825.354 185.241 824.481 184.637C823.675 183.965 822.667 183.629 821.458 183.629C819.779 183.629 818.503 184.234 817.63 185.443C816.824 186.652 816.286 188.23 816.018 190.178C815.816 192.126 815.782 194.309 815.917 196.727H802.315C802.114 191.622 802.685 187.223 804.028 183.529C805.439 179.835 807.622 177.013 810.577 175.066C813.6 173.051 817.227 172.043 821.458 172.043C825.488 172.043 828.947 172.782 831.835 174.26C834.791 175.67 837.041 177.853 838.586 180.808C840.13 183.764 840.903 187.492 840.903 191.992C840.903 194.611 840.533 197.164 839.795 199.649C839.056 202.067 838.082 204.451 836.873 206.802C835.664 209.153 834.32 211.403 832.843 213.552C831.365 215.702 829.887 217.784 828.41 219.799C826.999 221.747 825.656 223.594 824.38 225.34C823.171 227.019 822.163 228.598 821.357 230.075C820.618 231.553 820.215 232.896 820.148 234.105H841.608V245.591H803.121ZM866.86 246.598C863.502 246.598 860.513 245.893 857.893 244.483C855.341 243.072 853.125 240.889 851.244 237.934C849.43 234.978 848.053 231.15 847.113 226.448C846.173 221.679 845.703 215.97 845.703 209.321C845.703 202.671 846.173 196.996 847.113 192.294C848.053 187.592 849.43 183.764 851.244 180.808C853.125 177.786 855.341 175.603 857.893 174.26C860.513 172.849 863.502 172.144 866.86 172.144C870.219 172.144 873.174 172.849 875.726 174.26C878.346 175.603 880.562 177.786 882.376 180.808C884.256 183.764 885.667 187.592 886.607 192.294C887.548 196.996 888.018 202.671 888.018 209.321C888.018 215.97 887.548 221.679 886.607 226.448C885.667 231.15 884.256 234.978 882.376 237.934C880.562 240.889 878.346 243.072 875.726 244.483C873.174 245.893 870.219 246.598 866.86 246.598ZM866.86 235.012C868.136 235.012 869.245 234.609 870.185 233.803C871.125 232.93 871.864 231.519 872.401 229.572C873.006 227.624 873.443 225.004 873.711 221.713C873.98 218.355 874.114 214.224 874.114 209.321C874.114 204.418 873.98 200.32 873.711 197.029C873.443 193.738 873.006 191.119 872.401 189.171C871.864 187.223 871.125 185.812 870.185 184.939C869.245 184.066 868.136 183.629 866.86 183.629C865.584 183.629 864.476 184.066 863.535 184.939C862.662 185.745 861.923 187.156 861.319 189.171C860.714 191.119 860.278 193.738 860.009 197.029C859.74 200.32 859.606 204.418 859.606 209.321C859.606 214.224 859.74 218.355 860.009 221.713C860.278 225.004 860.714 227.624 861.319 229.572C861.923 231.519 862.662 232.93 863.535 233.803C864.476 234.609 865.584 235.012 866.86 235.012ZM893.246 245.591V241.762C893.246 239.21 893.682 236.691 894.555 234.206C895.429 231.654 896.57 229.169 897.981 226.751C899.391 224.333 900.936 221.948 902.615 219.597C904.362 217.179 906.075 214.828 907.754 212.545C909.433 210.194 910.978 207.877 912.388 205.593C913.799 203.309 914.941 201.059 915.814 198.843C916.687 196.626 917.124 194.443 917.124 192.294C917.124 190.346 916.922 188.734 916.519 187.458C916.116 186.182 915.478 185.241 914.605 184.637C913.799 183.965 912.791 183.629 911.582 183.629C909.903 183.629 908.627 184.234 907.754 185.443C906.948 186.652 906.41 188.23 906.142 190.178C905.94 192.126 905.907 194.309 906.041 196.727H892.44C892.238 191.622 892.809 187.223 894.152 183.529C895.563 179.835 897.746 177.013 900.701 175.066C903.724 173.051 907.351 172.043 911.582 172.043C915.612 172.043 919.071 172.782 921.96 174.26C924.915 175.67 927.165 177.853 928.71 180.808C930.255 183.764 931.027 187.492 931.027 191.992C931.027 194.611 930.658 197.164 929.919 199.649C929.18 202.067 928.206 204.451 926.997 206.802C925.788 209.153 924.445 211.403 922.967 213.552C921.489 215.702 920.012 217.784 918.534 219.799C917.124 221.747 915.78 223.594 914.504 225.34C913.295 227.019 912.288 228.598 911.481 230.075C910.743 231.553 910.34 232.896 910.272 234.105H931.732V245.591H893.246ZM956.272 246.498C951.839 246.498 948.145 245.557 945.19 243.677C942.234 241.729 940.018 239.042 938.54 235.617C937.062 232.124 936.256 228.094 936.122 223.527H950.026C949.958 226.213 950.193 228.43 950.731 230.176C951.268 231.855 952.007 233.098 952.947 233.904C953.955 234.643 955.063 235.012 956.272 235.012C958.623 235.012 960.302 233.904 961.31 231.687C962.317 229.471 962.821 226.079 962.821 221.512C962.821 218.22 962.552 215.634 962.015 213.754C961.545 211.806 960.839 210.429 959.899 209.623C958.959 208.75 957.817 208.313 956.474 208.313C954.66 208.313 953.25 209.086 952.242 210.63C951.302 212.108 950.731 214.09 950.529 216.575H937.029L938.742 172.95H973.903V184.738H951.436L950.429 201.261L951.033 201.563C951.839 199.951 953.048 198.776 954.66 198.037C956.272 197.231 958.018 196.828 959.899 196.828C962.787 196.828 965.272 197.399 967.355 198.54C969.504 199.682 971.25 201.328 972.594 203.477C973.937 205.559 974.944 208.112 975.616 211.134C976.288 214.09 976.624 217.414 976.624 221.109C976.624 226.885 975.784 231.687 974.105 235.516C972.493 239.277 970.142 242.065 967.052 243.878C964.03 245.624 960.436 246.498 956.272 246.498Z" fill="white"/>
</g>
<path d="M197.286 408.119C187.755 408.119 179.297 406.904 171.915 404.474C164.533 401.951 158.271 398.4 153.132 393.821C148.086 389.148 144.254 383.588 141.638 377.14C139.021 370.692 137.713 363.497 137.713 355.554C137.713 347.61 139.021 340.415 141.638 333.967C144.254 327.519 148.086 322.005 153.132 317.426C158.271 312.848 164.533 309.343 171.915 306.914C179.297 304.39 187.755 303.129 197.286 303.129C208.126 303.129 217.518 304.717 225.461 307.895C233.404 311.072 239.712 315.464 244.384 321.071C249.057 326.678 251.814 333.219 252.655 340.695H220.415C219.667 338.172 218.172 335.976 215.929 334.107C213.687 332.238 210.977 330.79 207.799 329.762C204.622 328.734 201.118 328.22 197.286 328.22C191.866 328.22 187.1 329.201 182.989 331.163C178.877 333.032 175.7 335.976 173.457 339.994C171.214 344.013 170.093 349.199 170.093 355.554C170.093 360.319 170.747 364.431 172.055 367.889C173.363 371.253 175.186 374.056 177.522 376.299C179.952 378.542 182.802 380.224 186.072 381.345C189.437 382.373 193.175 382.887 197.286 382.887C201.024 382.887 204.529 382.373 207.799 381.345C211.07 380.318 213.827 378.869 216.07 377C218.406 375.131 219.948 372.935 220.695 370.412H252.655C251.814 377.981 248.87 384.616 243.824 390.317C238.778 395.923 232.236 400.316 224.2 403.493C216.163 406.577 207.192 408.119 197.286 408.119ZM263.207 406.717V304.531H325.444C331.051 304.531 336.331 305.045 341.284 306.072C346.33 307.1 350.769 308.829 354.6 311.259C358.431 313.595 361.422 316.819 363.571 320.931C365.814 324.949 366.935 329.995 366.935 336.07C366.935 342.05 365.253 347.377 361.889 352.049C358.618 356.628 354.039 359.619 348.152 361.02V362.002C353.479 362.936 357.497 365.039 360.207 368.309C362.917 371.487 364.272 376.019 364.272 381.906V393.961C364.272 396.017 364.319 398.12 364.412 400.269C364.599 402.418 365.16 404.567 366.094 406.717H333.854C333.294 405.502 332.873 403.867 332.593 401.811C332.312 399.755 332.172 397.232 332.172 394.241V386.252C332.172 383.822 331.799 381.766 331.051 380.084C330.303 378.308 328.995 376.953 327.126 376.019C325.257 374.991 322.594 374.477 319.136 374.477H295.307V406.717H263.207ZM295.307 351.769H318.856C324.93 351.769 329.042 350.648 331.191 348.405C333.34 346.162 334.415 343.218 334.415 339.574C334.415 336.677 333.761 334.434 332.453 332.846C331.144 331.257 329.322 330.136 326.986 329.481C324.65 328.827 321.94 328.5 318.856 328.5H295.307V351.769ZM427.133 408.119C416.76 408.119 407.742 406.53 400.08 403.353C392.417 400.175 386.436 395.176 382.137 388.354C377.932 381.532 375.83 372.748 375.83 362.002V304.531H407.369V362.142C407.369 366.067 407.929 369.524 409.051 372.515C410.266 375.505 412.275 377.841 415.078 379.523C417.975 381.205 421.993 382.046 427.133 382.046C431.058 382.046 434.469 381.486 437.366 380.364C440.356 379.243 442.692 377.234 444.374 374.337C446.056 371.44 446.897 367.375 446.897 362.142V304.531H478.577V362.002C478.577 371.16 476.801 379.243 473.25 386.252C469.792 393.167 464.279 398.54 456.71 402.371C449.14 406.203 439.281 408.119 427.133 408.119ZM492.22 406.717V304.531H530.908L570.437 364.805H571.558L570.717 336.07V304.531H602.537V406.717H564.41L524.881 347.283H523.619L524.6 375.038V406.717H492.22ZM672.698 408.119C663.166 408.119 654.709 406.904 647.326 404.474C639.944 401.951 633.683 398.4 628.543 393.821C623.497 389.148 619.666 383.588 617.049 377.14C614.432 370.692 613.124 363.497 613.124 355.554C613.124 347.61 614.432 340.415 617.049 333.967C619.666 327.519 623.497 322.005 628.543 317.426C633.683 312.848 639.944 309.343 647.326 306.914C654.709 304.39 663.166 303.129 672.698 303.129C683.538 303.129 692.929 304.717 700.873 307.895C708.816 311.072 715.124 315.464 719.796 321.071C724.468 326.678 727.225 333.219 728.066 340.695H695.826C695.079 338.172 693.584 335.976 691.341 334.107C689.098 332.238 686.388 330.79 683.211 329.762C680.034 328.734 676.529 328.22 672.698 328.22C667.278 328.22 662.512 329.201 658.4 331.163C654.288 333.032 651.111 335.976 648.868 339.994C646.626 344.013 645.504 349.199 645.504 355.554C645.504 360.319 646.158 364.431 647.467 367.889C648.775 371.253 650.597 374.056 652.933 376.299C655.363 378.542 658.213 380.224 661.484 381.345C664.848 382.373 668.586 382.887 672.698 382.887C676.436 382.887 679.94 382.373 683.211 381.345C686.482 380.318 689.238 378.869 691.481 377C693.817 375.131 695.359 372.935 696.107 370.412H728.066C727.225 377.981 724.282 384.616 719.235 390.317C714.189 395.923 707.648 400.316 699.611 403.493C691.574 406.577 682.603 408.119 672.698 408.119ZM738.619 406.717V304.531L770.718 304.531V344.62L768.616 342.517L817.116 342.517L815.013 344.62V304.531H847.113V406.717H815.013V365.366L817.116 367.468H768.616L770.718 365.366V406.717H738.619ZM862.228 406.717V304.531H951.659V329.622H888.02L894.328 323.314V350.087L888.02 343.779H944.65V367.188H888.02L894.328 360.88V387.934L888.02 381.626H952.079V406.717L862.228 406.717ZM963.388 406.717V304.531H1014.97C1027.31 304.531 1037.49 306.68 1045.53 310.979C1053.66 315.184 1059.69 321.118 1063.61 328.781C1067.63 336.443 1069.64 345.414 1069.64 355.694C1069.64 364.198 1068.33 371.674 1065.71 378.121C1063.19 384.476 1059.55 389.803 1054.78 394.101C1050.02 398.306 1044.27 401.484 1037.54 403.633C1030.81 405.689 1023.29 406.717 1014.97 406.717H963.388ZM995.348 382.186H1008.38C1013.71 382.186 1018.2 381.626 1021.84 380.504C1025.58 379.29 1028.57 377.514 1030.81 375.178C1033.05 372.842 1034.69 369.991 1035.72 366.627C1036.75 363.263 1037.26 359.432 1037.26 355.133C1037.26 348.311 1036.04 343.031 1033.62 339.294C1031.19 335.556 1027.77 332.939 1023.38 331.444C1019.08 329.855 1014.08 329.061 1008.38 329.061H995.348V382.186Z" fill="#103F23"/>
</g>
</g>
<defs>
<filter id="filter0_dd_334_381" x="0.91375" y="0.169049" width="1206.43" height="568.423" filterUnits="userSpaceOnUse" color-interpolation-filters="sRGB">
<feFlood flood-opacity="0" result="BackgroundImageFix"/>
<feColorMatrix in="SourceAlpha" type="matrix" values="0 0 0 0 0 0 0 0 0 0 0 0 0 0 0 0 0 0 127 0" result="hardAlpha"/>
<feOffset dy="10.3924"/>
<feGaussianBlur stdDeviation="6.72248"/>
<feComposite in2="hardAlpha" operator="out"/>
<feColorMatrix type="matrix" values="0 0 0 0 0 0 0 0 0 0 0 0 0 0 0 0 0 0 0.07 0"/>
<feBlend mode="normal" in2="BackgroundImageFix" result="effect1_dropShadow_334_381"/>
<feColorMatrix in="SourceAlpha" type="matrix" values="0 0 0 0 0 0 0 0 0 0 0 0 0 0 0 0 0 0 127 0" result="hardAlpha"/>
<feOffset dy="4.16253"/>
<feGaussianBlur stdDeviation="19.715"/>
<feComposite in2="hardAlpha" operator="out"/>
<feColorMatrix type="matrix" values="0 0 0 0 0 0 0 0 0 0 0 0 0 0 0 0 0 0 0.12 0"/>
<feBlend mode="normal" in2="effect1_dropShadow_334_381" result="effect2_dropShadow_334_381"/>
<feBlend mode="normal" in="SourceGraphic" in2="effect2_dropShadow_334_381" result="shape"/>
</filter>
<linearGradient id="paint0_linear_334_381" x1="888.537" y1="107.847" x2="944.697" y2="218.963" gradientUnits="userSpaceOnUse">
<stop offset="0.000789677" stop-color="#94F27F"/>
<stop offset="1" stop-color="#6BC850"/>
</linearGradient>
<clipPath id="clip0_334_381">
<rect width="1208" height="569" fill="white"/>
</clipPath>
<clipPath id="clip1_334_381">
<rect width="181.877" height="98.0709" fill="white" transform="translate(797.512 160.237)"/>
</clipPath>
</defs>
</svg>
