<svg width="437" height="230" viewBox="0 0 437 230" fill="none" xmlns="http://www.w3.org/2000/svg">
<g clip-path="url(#clip0_334_425)">
<g filter="url(#filter0_d_334_425)">
<rect x="19.8516" y="11.2861" width="397.553" height="191.522" rx="31.9204" fill="#A6FF3A" shape-rendering="crispEdges"/>
<rect x="19.8516" y="11.2861" width="397.553" height="191.522" rx="31.9204" fill="url(#paint0_linear_334_425)" shape-rendering="crispEdges"/>
<rect x="14.3516" y="5.78613" width="408.553" height="202.522" rx="37.4204" stroke="white" stroke-width="11" shape-rendering="crispEdges"/>
<g clip-path="url(#clip1_334_425)">
<path d="M68.8334 57.0698C81.1017 57.0698 89.262 64.9526 89.262 76.6102C89.262 88.3233 81.1017 96.2061 68.8334 96.2061H59.0077L59.0077 57.0698H68.8334ZM68.8889 63.9533H67.1681V89.3225H68.9445C76.2721 89.3225 81.1017 84.2709 81.1017 76.6102C81.1017 68.9495 76.2721 63.9533 68.8889 63.9533ZM102.405 57.0698V96.2061H94.2451V57.0698H102.405ZM118.003 57.0698C130.271 57.0698 138.432 64.9526 138.432 76.6102C138.432 88.3233 130.271 96.2061 118.003 96.2061H108.177V57.0698H118.003ZM118.059 63.9533H116.338V89.3225H118.114C125.442 89.3225 130.271 84.2709 130.271 76.6102C130.271 68.9495 125.442 63.9533 118.059 63.9533ZM182.771 57.0698L171.114 78.22V96.2061H162.898V78.22L151.185 57.0698H159.9L167.505 71.17L175.111 57.0698H182.771ZM201.12 97.0387C189.351 97.0387 180.802 88.3788 180.802 76.5547C180.802 64.786 189.351 56.2371 201.12 56.2371C212.889 56.2371 221.437 64.786 221.437 76.5547C221.437 88.3788 212.889 97.0387 201.12 97.0387ZM201.12 89.4335C208.17 89.4335 213.277 83.9933 213.277 76.6102C213.277 69.227 208.17 63.8423 201.12 63.8423C194.07 63.8423 188.963 69.227 188.963 76.6102C188.963 83.9933 194.07 89.4335 201.12 89.4335ZM234.352 57.0698V83.5492C234.352 87.3796 236.461 89.6556 240.014 89.6556C243.511 89.6556 245.621 87.3796 245.621 83.5492V57.0698H253.781V85.2701C253.781 92.2092 248.119 97.0387 240.014 97.0387C231.798 97.0387 226.136 92.2092 226.136 85.2701V57.0698H234.352Z" fill="white"/>
<path d="M70.056 110.184L70.056 131.745L85.177 110.184H96.3778L80.4167 132.375L96.0278 159.537H84.1969L70.056 134.755L70.056 159.537H59.7653L59.7653 110.184H70.056ZM137.658 159.537H131.568L111.196 130.975L111.196 159.537H101.536L101.536 110.184H107.626L127.928 138.606L127.928 110.184H137.658L137.658 159.537ZM169.589 160.587C154.748 160.587 143.967 149.666 143.967 134.755C143.967 119.914 154.748 109.134 169.589 109.134C184.43 109.134 195.21 119.914 195.21 134.755C195.21 149.666 184.43 160.587 169.589 160.587ZM169.589 150.997C178.479 150.997 184.92 144.136 184.92 134.825C184.92 125.515 178.479 118.724 169.589 118.724C160.698 118.724 154.258 125.515 154.258 134.825C154.258 144.136 160.698 150.997 169.589 150.997ZM245.843 159.537H235.412L225.962 133.705L216.441 159.537H206.22L198.17 110.184H208.53L213.571 143.016L226.102 109.134H226.592L239.123 143.156L244.233 110.184H253.964L245.843 159.537Z" fill="white"/>
</g>
<g clip-path="url(#clip2_334_425)">
<circle cx="327.446" cy="107.048" r="53.6842" fill="white"/>
<path d="M312.938 82.3679C319.545 76.5844 330.266 76.5844 336.873 82.3679C343.486 88.1515 343.486 97.5293 336.873 103.313C335.728 104.323 334.447 105.152 333.092 105.807C328.889 107.844 324.911 111.444 324.911 116.116V120.348M324.905 137.275H324.95V137.32H324.905V137.275Z" stroke="black" stroke-width="8.46373" stroke-linecap="round" stroke-linejoin="round"/>
</g>
</g>
</g>
<defs>
<filter id="filter0_d_334_425" x="0.981319" y="0.286133" width="435.295" height="229.263" filterUnits="userSpaceOnUse" color-interpolation-filters="sRGB">
<feFlood flood-opacity="0" result="BackgroundImageFix"/>
<feColorMatrix in="SourceAlpha" type="matrix" values="0 0 0 0 0 0 0 0 0 0 0 0 0 0 0 0 0 0 127 0" result="hardAlpha"/>
<feOffset dy="7.87024"/>
<feGaussianBlur stdDeviation="3.93512"/>
<feComposite in2="hardAlpha" operator="out"/>
<feColorMatrix type="matrix" values="0 0 0 0 0 0 0 0 0 0 0 0 0 0 0 0 0 0 0.12 0"/>
<feBlend mode="normal" in2="BackgroundImageFix" result="effect1_dropShadow_334_425"/>
<feBlend mode="normal" in="SourceGraphic" in2="effect1_dropShadow_334_425" result="shape"/>
</filter>
<linearGradient id="paint0_linear_334_425" x1="218.753" y1="-47.1335" x2="306.454" y2="118.483" gradientUnits="userSpaceOnUse">
<stop offset="0.000789677" stop-color="#94F27F"/>
<stop offset="1" stop-color="#6BC850"/>
</linearGradient>
<clipPath id="clip0_334_425">
<rect width="437" height="230" fill="white"/>
</clipPath>
<clipPath id="clip1_334_425">
<rect width="203.13" height="133.485" fill="white" transform="translate(56.125 40.3047)"/>
</clipPath>
<clipPath id="clip2_334_425">
<rect width="107.368" height="107.368" fill="white" transform="translate(273.762 53.3633)"/>
</clipPath>
</defs>
</svg>
