<svg width="339" height="337" viewBox="0 0 339 337" fill="none" xmlns="http://www.w3.org/2000/svg">
<g clip-path="url(#clip0_334_361)">
<g filter="url(#filter0_d_334_361)">
<path d="M157.546 15.6397C164.146 9.86459 174 9.8646 180.599 15.6397L189.79 23.6822C194.362 27.6839 200.684 29.0275 206.489 27.2317L218.156 23.6226C226.533 21.0309 235.536 25.0391 239.216 32.9991L244.34 44.0843C246.89 49.6 252.118 53.3985 258.152 54.1191L270.278 55.5673C278.986 56.6073 285.58 63.9306 285.704 72.6991L285.876 84.9103C285.962 90.9862 289.194 96.5829 294.413 99.6953L304.901 105.95C312.433 110.442 315.478 119.814 312.025 127.875L307.216 139.101C304.824 144.687 305.499 151.114 309.001 156.08L316.039 166.06C321.092 173.227 320.062 183.028 313.629 188.987L304.67 197.286C300.212 201.416 298.215 207.562 299.394 213.523L301.764 225.503C303.466 234.106 298.539 242.64 290.238 245.468L278.677 249.406C272.925 251.365 268.601 256.167 267.254 262.093L264.546 274.001C262.602 282.552 254.629 288.345 245.896 287.551L233.733 286.447C227.682 285.897 221.778 288.526 218.137 293.391L210.82 303.168C205.565 310.189 195.926 312.238 188.27 307.961L177.609 302.005C172.304 299.042 165.842 299.042 160.537 302.005L149.875 307.961C142.219 312.238 132.58 310.189 127.326 303.168L120.008 293.391C116.368 288.526 110.464 285.897 104.412 286.447L92.2498 287.551C83.5163 288.345 75.5439 282.552 73.5995 274.001L70.8917 262.093C69.5443 256.167 65.2201 251.365 59.4681 249.406L47.9079 245.468C39.6069 242.64 34.6797 234.106 36.3814 225.503L38.7513 213.523C39.9305 207.562 37.9335 201.416 33.4756 197.286L24.5166 188.987C18.0833 183.028 17.0532 173.227 22.1069 166.06L29.1447 156.08C32.6465 151.114 33.322 144.687 30.9292 139.101L26.1203 127.875C22.6671 119.814 25.7123 110.442 33.2441 105.95L43.7329 99.6953C48.9519 96.5829 52.1831 90.9862 52.269 84.9103L52.4418 72.6991C52.5658 63.9306 59.1598 56.6073 67.8673 55.5673L79.9935 54.1191C86.0272 53.3985 91.2554 49.6 93.8053 44.0843L98.9298 32.9991C102.61 25.0391 111.612 21.0309 119.99 23.6226L131.657 27.2317C137.462 29.0275 143.783 27.6839 148.356 23.6822L157.546 15.6397Z" fill="#B2E561"/>
<path d="M157.546 15.6397C164.146 9.86459 174 9.8646 180.599 15.6397L189.79 23.6822C194.362 27.6839 200.684 29.0275 206.489 27.2317L218.156 23.6226C226.533 21.0309 235.536 25.0391 239.216 32.9991L244.34 44.0843C246.89 49.6 252.118 53.3985 258.152 54.1191L270.278 55.5673C278.986 56.6073 285.58 63.9306 285.704 72.6991L285.876 84.9103C285.962 90.9862 289.194 96.5829 294.413 99.6953L304.901 105.95C312.433 110.442 315.478 119.814 312.025 127.875L307.216 139.101C304.824 144.687 305.499 151.114 309.001 156.08L316.039 166.06C321.092 173.227 320.062 183.028 313.629 188.987L304.67 197.286C300.212 201.416 298.215 207.562 299.394 213.523L301.764 225.503C303.466 234.106 298.539 242.64 290.238 245.468L278.677 249.406C272.925 251.365 268.601 256.167 267.254 262.093L264.546 274.001C262.602 282.552 254.629 288.345 245.896 287.551L233.733 286.447C227.682 285.897 221.778 288.526 218.137 293.391L210.82 303.168C205.565 310.189 195.926 312.238 188.27 307.961L177.609 302.005C172.304 299.042 165.842 299.042 160.537 302.005L149.875 307.961C142.219 312.238 132.58 310.189 127.326 303.168L120.008 293.391C116.368 288.526 110.464 285.897 104.412 286.447L92.2498 287.551C83.5163 288.345 75.5439 282.552 73.5995 274.001L70.8917 262.093C69.5443 256.167 65.2201 251.365 59.4681 249.406L47.9079 245.468C39.6069 242.64 34.6797 234.106 36.3814 225.503L38.7513 213.523C39.9305 207.562 37.9335 201.416 33.4756 197.286L24.5166 188.987C18.0833 183.028 17.0532 173.227 22.1069 166.06L29.1447 156.08C32.6465 151.114 33.322 144.687 30.9292 139.101L26.1203 127.875C22.6671 119.814 25.7123 110.442 33.2441 105.95L43.7329 99.6953C48.9519 96.5829 52.1831 90.9862 52.269 84.9103L52.4418 72.6991C52.5658 63.9306 59.1598 56.6073 67.8673 55.5673L79.9935 54.1191C86.0272 53.3985 91.2554 49.6 93.8053 44.0843L98.9298 32.9991C102.61 25.0391 111.612 21.0309 119.99 23.6226L131.657 27.2317C137.462 29.0275 143.783 27.6839 148.356 23.6822L157.546 15.6397Z" fill="url(#paint0_linear_334_361)"/>
<path d="M153.924 11.501C162.597 3.91113 175.549 3.91114 184.222 11.501L193.411 19.543C196.547 22.2872 200.882 23.209 204.863 21.9775L216.53 18.3682C227.541 14.9622 239.372 20.2301 244.208 30.6914L249.333 41.7764C251.082 45.5588 254.667 48.164 258.805 48.6582L270.931 50.1064C282.374 51.4733 291.04 61.0974 291.203 72.6211L291.376 84.832C291.435 88.9987 293.651 92.8373 297.229 94.9717L307.719 101.227C317.617 107.13 321.619 119.447 317.081 130.041L312.271 141.267C310.631 145.097 311.095 149.505 313.496 152.91L320.533 162.891C327.175 172.309 325.821 185.189 317.366 193.021L308.407 201.321C305.35 204.153 303.981 208.368 304.79 212.456L307.159 224.436C309.396 235.742 302.92 246.958 292.011 250.674L280.451 254.612C276.507 255.956 273.541 259.249 272.617 263.312L269.909 275.221C267.354 286.459 256.876 294.072 245.398 293.029L233.236 291.924C229.086 291.547 225.037 293.35 222.54 296.687L215.224 306.464C208.318 315.691 195.649 318.383 185.588 312.763L174.927 306.807C171.289 304.774 166.857 304.774 163.219 306.807L152.558 312.763C142.496 318.383 129.827 315.691 122.922 306.464L115.605 296.687C113.109 293.35 109.059 291.547 104.909 291.924L92.7471 293.029C81.2693 294.072 70.7917 286.459 68.2363 275.221L65.5283 263.312C64.6044 259.249 61.6389 255.956 57.6943 254.612L46.1348 250.674C35.2253 246.958 28.7499 235.742 30.9863 224.436L33.3555 212.456C34.1641 208.368 32.7951 204.153 29.7383 201.321L20.7793 193.021C12.3245 185.189 10.9706 172.309 17.6123 162.891L24.6494 152.91C27.0508 149.505 27.5149 145.097 25.874 141.267L21.0645 130.041C16.5263 119.447 20.5284 107.13 30.4268 101.227L40.916 94.9717C44.4949 92.8373 46.7106 88.9987 46.7695 84.832L46.9424 72.6211C47.1055 61.0974 55.7713 51.4733 67.2148 50.1064L79.3408 48.6582C83.4785 48.164 87.0639 45.5588 88.8125 41.7764L93.9375 30.6914C98.7736 20.2301 110.605 14.9622 121.615 18.3682L133.282 21.9775C137.263 23.209 141.598 22.2872 144.734 19.543L153.924 11.501Z" stroke="white" stroke-width="11"/>
</g>
<path d="M93.3525 77.3895L111.619 100.411L106.819 104.22L88.5523 81.1983L93.3525 77.3895ZM105.416 79.9252L102.6 70.8042L107.213 67.8824L109.185 77.5386L105.416 79.9252ZM120.489 62.3983L126.399 60.4899L136.52 73.3857L137.149 57.0189L142.941 55.1489L156.533 81.6423L150.662 83.5379L141.799 65.8555L140.897 87.3478L140.619 87.4374L127.294 70.4512L130.431 90.07L124.917 91.8504L120.489 62.3983ZM180.119 51.299L178.414 80.6374L172.297 80.2818L174.002 50.9434L180.119 51.299ZM205.518 87.0143L202.015 86.0753L194.702 66.5069L190.299 82.9344L184.742 81.4449L192.352 53.0592L195.855 53.9982L203.149 73.4753L207.531 57.1283L213.128 58.6286L205.518 87.0143ZM235.704 105.225L237.885 98.2965L229.309 92.0157L223.328 96.1606L218.519 92.6384L244.493 75.2349L249.571 78.9541L240.816 108.969L235.704 105.225ZM233.635 88.9317L239.453 93.1928L242.808 82.4743L233.635 88.9317Z" fill="white"/>
<path d="M92.3318 211.076L97.0294 215.14L91.2545 230.482L105.573 222.53L110.176 226.511L94.5766 251.874L89.9106 247.838L100.43 231.088L81.5881 241.466L81.3674 241.275L88.9772 221.072L73.8315 233.931L69.4492 230.14L92.3318 211.076ZM106.254 261.159L118.356 234.378L132.829 240.919L130.7 245.629L121.812 241.612L119.031 247.766L127.919 251.783L125.791 256.493L116.902 252.476L113.966 258.972L122.855 262.989L120.727 267.699L106.254 261.159ZM135.263 273.658L140.093 244.67L155.759 247.28L154.909 252.379L145.288 250.776L144.178 257.437L153.8 259.04L152.95 264.139L143.328 262.536L142.157 269.567L151.779 271.17L150.929 276.268L135.263 273.658ZM163.548 254.235L163.006 249.094L183.527 246.931L184.068 252.072L176.855 252.832L179.393 276.918L173.3 277.56L170.761 253.474L163.548 254.235ZM197.771 244.297L207.649 271.975L201.878 274.035L192 246.357L197.771 244.297ZM240.521 254.455L237.477 256.428L218.047 248.755L227.299 263.026L222.472 266.155L206.486 241.496L209.529 239.523L228.879 247.148L219.673 232.947L224.535 229.795L240.521 254.455ZM264.316 235.265C257.921 241.838 249.138 241.959 242.744 235.738C236.261 229.43 236.135 220.294 242.472 213.78C245.146 211.031 248.366 209.395 251.898 208.993L253.276 214.87C250.712 214.876 248.339 215.94 246.478 217.852C242.699 221.736 242.924 227.364 246.928 231.259C250.902 235.125 256.504 235.225 260.312 231.311C261.416 230.175 262.282 228.807 262.763 227.356L258.401 223.112L253.401 228.251L250.221 224.227L258.593 215.622L269.229 225.97C268.598 229.369 266.874 232.635 264.316 235.265Z" fill="white"/>
<circle cx="169.072" cy="165.703" r="60.385" fill="url(#paint1_linear_334_361)"/>
<g clip-path="url(#clip1_334_361)">
<circle cx="169.072" cy="165.703" r="60.385" fill="white"/>
<rect x="138.09" y="142.438" width="13.3062" height="50.5636" rx="6.65311" transform="rotate(1.58864 138.09 142.438)" fill="#3D9B49"/>
<rect x="164.711" y="129.936" width="14.0066" height="77.036" rx="7.00328" transform="rotate(1.58864 164.711 129.936)" fill="#3D9B49"/>
<rect x="191.074" y="151.895" width="13.3062" height="34.5962" rx="6.65311" transform="rotate(1.58864 191.074 151.895)" fill="#3D9B49"/>
</g>
</g>
<defs>
<filter id="filter0_d_334_361" x="0.0360065" y="0.308594" width="338.073" height="336.618" filterUnits="userSpaceOnUse" color-interpolation-filters="sRGB">
<feFlood flood-opacity="0" result="BackgroundImageFix"/>
<feColorMatrix in="SourceAlpha" type="matrix" values="0 0 0 0 0 0 0 0 0 0 0 0 0 0 0 0 0 0 127 0" result="hardAlpha"/>
<feOffset dy="7.87024"/>
<feGaussianBlur stdDeviation="3.93512"/>
<feComposite in2="hardAlpha" operator="out"/>
<feColorMatrix type="matrix" values="0 0 0 0 0 0 0 0 0 0 0 0 0 0 0 0 0 0 0.12 0"/>
<feBlend mode="normal" in2="BackgroundImageFix" result="effect1_dropShadow_334_361"/>
<feBlend mode="normal" in="SourceGraphic" in2="effect1_dropShadow_334_361" result="shape"/>
</filter>
<linearGradient id="paint0_linear_334_361" x1="169.171" y1="-90.013" x2="341.846" y2="67.0776" gradientUnits="userSpaceOnUse">
<stop offset="0.000789677" stop-color="#94F27F"/>
<stop offset="1" stop-color="#6BC850"/>
</linearGradient>
<linearGradient id="paint1_linear_334_361" x1="169.072" y1="105.318" x2="169.072" y2="226.088" gradientUnits="userSpaceOnUse">
<stop stop-color="#0077FF"/>
<stop offset="1" stop-color="#71EBF4"/>
</linearGradient>
<clipPath id="clip0_334_361">
<rect width="339" height="337" fill="white"/>
</clipPath>
<clipPath id="clip1_334_361">
<rect width="120.77" height="120.77" fill="white" transform="translate(108.688 105.318)"/>
</clipPath>
</defs>
</svg>
