<svg width="531" height="199" viewBox="0 0 531 199" fill="none" xmlns="http://www.w3.org/2000/svg">
<g filter="url(#filter0_d_334_382)">
<path d="M416.537 10.5635C423.577 0.685458 437.192 -1.74052 447.193 5.00977L447.667 5.33789L447.669 5.33887C457.707 12.4922 460.044 26.4296 452.895 36.4678L451.667 38.1914L456.596 42.8027L477.346 13.6836L477.347 13.6816C484.387 3.80357 498.001 1.3785 508.003 8.12891L508.477 8.45605L508.479 8.45801C518.516 15.6114 520.854 29.5479 513.704 39.5859L485.278 79.4785C494.208 80.0767 501.266 87.5059 501.267 96.5869V107.32C501.267 109.819 500.727 112.19 499.767 114.331C500.727 116.472 501.266 118.844 501.267 121.343V132.075C501.267 134.725 500.664 137.235 499.591 139.476C500.664 141.716 501.267 144.226 501.267 146.877V157.61C501.267 167.083 493.588 174.762 484.115 174.762H451.137C449.577 174.762 448.068 174.549 446.632 174.159C445.196 174.549 443.686 174.762 442.126 174.762H434.595C429.78 174.762 425.225 172.739 422.001 169.251C418.868 172.639 414.387 174.762 409.408 174.762H397.463C392.248 174.762 387.578 172.433 384.433 168.76C376.944 173.407 367.972 176.06 358.112 176.061C343.969 176.06 331.648 170.605 322.92 161.627C313.968 170.186 302.033 174.489 289.264 174.75L288.021 174.762H272.7C263.228 174.762 255.549 167.083 255.549 157.61V146.207C252.787 148.109 249.441 149.227 245.834 149.227H242.73V157.61C242.73 167.083 235.052 174.762 225.579 174.762H212.855C206.768 174.762 201.425 171.587 198.381 166.806C195.337 171.587 189.994 174.762 183.906 174.762H171.183C167.336 174.762 163.786 173.494 160.925 171.355C154.843 174.559 147.952 176.06 140.999 176.06C131.308 176.059 121.728 173.196 114.271 166.862C113.502 166.209 112.766 165.524 112.063 164.814C109.341 170.687 103.399 174.762 96.5 174.762H83.7764C77.6075 174.762 72.2017 171.503 69.1797 166.615C62.2017 172.829 53.2448 175.862 44.0039 176.052L43.0771 176.061C38.8053 176.061 34.4831 175.462 30.5312 174.375C26.8049 173.35 22.2352 171.57 18.3008 168.445C14.2041 165.192 11.8165 160.246 11.8164 155.015V142.81C11.8166 138.015 13.8154 133.535 17.1836 130.349C14.1929 125.366 12.509 119.483 12.5088 112.775C12.5089 103.182 16.0078 93.9443 23.4307 87.2607C24.1698 86.5953 24.9339 85.9732 25.7139 85.3877C16.8756 76.3488 12.3341 64.1728 12.334 51.0869L12.3486 49.7666C12.9954 22.1485 33.902 1.73648 61.7705 1.73633C68.7528 1.73633 75.53 3.04384 81.791 5.69727C84.4446 4.01353 87.5895 3.03422 90.9648 3.03418L123.943 3.03418C125.291 3.03419 126.601 3.1955 127.858 3.48926C129.116 3.19556 130.425 3.03422 131.772 3.03418L174.618 3.03418C175.867 3.03418 177.085 3.17128 178.258 3.4248C179.431 3.17135 180.648 3.03419 181.896 3.03418L224.742 3.03418C226.146 3.03421 227.51 3.20725 228.815 3.52539C230.121 3.20733 231.484 3.03422 232.888 3.03418L245.611 3.03418C247.169 3.03418 248.677 3.24575 250.111 3.63477C251.545 3.24583 253.053 3.03421 254.61 3.03418L262.141 3.03418C266.934 3.03425 271.47 5.03954 274.691 8.5C277.823 5.13866 282.286 3.03418 287.242 3.03418L299.274 3.03418C304.55 3.0343 309.267 5.41935 312.413 9.16699C320.056 4.42491 329.248 1.7364 339.358 1.73633C350.941 1.73633 361.964 5.32214 370.994 12.71C375.928 16.7466 378.069 23.0217 377.02 28.9707C381.781 29.3006 386.466 31.1514 390.288 34.5498L390.714 34.9385L395.786 39.6846L416.536 10.5654L416.537 10.5635ZM47.4756 147.326C47.5977 147.267 47.7167 147.204 47.834 147.141C47.7168 147.205 47.5977 147.267 47.4756 147.326ZM47.834 147.141C47.8527 147.13 47.8711 147.12 47.8896 147.109C47.871 147.12 47.8527 147.13 47.834 147.141ZM47.8896 147.109C47.9851 147.057 48.0787 147.002 48.1709 146.946C48.0788 147.002 47.985 147.056 47.8896 147.109ZM48.1709 146.946C48.1804 146.941 48.1908 146.936 48.2002 146.931C48.2195 146.919 48.2377 146.905 48.2568 146.893C48.2282 146.91 48.1998 146.929 48.1709 146.946ZM48.2568 146.893C48.3415 146.84 48.425 146.786 48.5068 146.73C48.425 146.786 48.3415 146.84 48.2568 146.893ZM48.5068 146.73C48.517 146.724 48.528 146.718 48.5381 146.711C48.5491 146.703 48.5593 146.694 48.5703 146.687C48.5492 146.701 48.5282 146.716 48.5068 146.73ZM48.5703 146.687C48.6577 146.626 48.7432 146.564 48.8271 146.5C48.7432 146.564 48.6577 146.626 48.5703 146.687ZM48.8271 146.5C48.8474 146.485 48.8677 146.47 48.8877 146.454C48.8677 146.47 48.8473 146.485 48.8271 146.5ZM48.8877 146.454C48.9624 146.396 49.0355 146.337 49.1074 146.276C49.0354 146.337 48.9625 146.396 48.8877 146.454ZM49.1074 146.276C49.1372 146.251 49.167 146.227 49.1963 146.201C49.167 146.227 49.1372 146.251 49.1074 146.276ZM49.1963 146.201C49.2591 146.147 49.3202 146.091 49.3809 146.034C49.3202 146.091 49.2592 146.147 49.1963 146.201ZM49.3809 146.034C49.4121 146.005 49.444 145.977 49.4746 145.947C49.444 145.977 49.4121 146.005 49.3809 146.034ZM49.4746 145.947C49.562 145.863 49.648 145.778 49.7305 145.689C49.648 145.778 49.562 145.863 49.4746 145.947ZM28.9678 142.812C29.2273 143.033 29.4902 143.25 29.7549 143.459L28.9678 142.812ZM300.649 142.673C300.764 142.577 300.876 142.478 300.987 142.379C301.013 142.356 301.038 142.332 301.063 142.309C300.927 142.432 300.79 142.554 300.649 142.673ZM301.063 142.309C301.123 142.255 301.183 142.2 301.242 142.146C301.183 142.2 301.123 142.255 301.063 142.309ZM57.3203 96.4688C57.1288 96.4091 56.9347 96.3518 56.7393 96.2969C56.9347 96.3517 57.1288 96.4091 57.3203 96.4688ZM56.7207 96.292C56.5879 96.2548 56.4538 96.2206 56.3193 96.1855C56.4538 96.2205 56.5879 96.2549 56.7207 96.292ZM56.3193 96.1855C56.1914 96.1523 56.0628 96.1202 55.9336 96.0889C56.0628 96.1203 56.1914 96.1522 56.3193 96.1855ZM55.9336 96.0889C55.8637 96.0719 55.7939 96.0525 55.7236 96.0361C55.6844 96.027 55.6448 96.0197 55.6055 96.0107C55.7153 96.0358 55.8246 96.0625 55.9336 96.0889ZM499.641 23.5059C499.568 23.41 499.49 23.317 499.41 23.2256C499.49 23.3168 499.568 23.41 499.641 23.5059ZM499.41 23.2256C499.401 23.2156 499.392 23.2063 499.383 23.1963C499.392 23.2063 499.401 23.2155 499.41 23.2256ZM498.865 22.6914C499.052 22.849 499.224 23.0184 499.383 23.1963C499.359 23.1695 499.336 23.1416 499.312 23.1152C499.253 23.0525 499.193 22.9909 499.131 22.9307C499.046 22.8482 498.957 22.769 498.865 22.6914ZM498.865 22.6914C498.844 22.6731 498.822 22.6547 498.8 22.6367C498.822 22.6548 498.844 22.673 498.865 22.6914ZM498.8 22.6367C498.779 22.6197 498.758 22.6017 498.737 22.585L498.685 22.5459C498.723 22.5759 498.762 22.6059 498.8 22.6367ZM494.914 21.5029V21.502V21.5029ZM438.831 20.3877C438.76 20.2942 438.684 20.2035 438.606 20.1143C438.685 20.2034 438.76 20.2942 438.831 20.3877ZM438.606 20.1143C438.594 20.1002 438.582 20.0862 438.569 20.0723C438.582 20.0862 438.594 20.1002 438.606 20.1143ZM438.035 19.5557C438.228 19.7167 438.406 19.8897 438.569 20.0723C438.547 20.0471 438.525 20.0209 438.502 19.9961C438.444 19.9334 438.382 19.8727 438.32 19.8125C438.229 19.7239 438.134 19.6385 438.035 19.5557ZM438.014 19.5381C437.985 19.5144 437.957 19.49 437.928 19.4668C437.915 19.4567 437.902 19.4474 437.889 19.4375C437.931 19.4704 437.973 19.5041 438.014 19.5381Z" fill="white"/>
</g>
<path d="M49.0537 95.2939C53.3815 95.2939 58.4022 96.2462 61.4316 98.4102V110.095C58.2291 107.498 53.6411 105.854 49.7461 105.854C44.8992 105.854 41.9561 108.277 41.9561 112.259C41.9561 122.299 63.9414 120.828 63.9414 139.265C63.9414 150.95 55.4593 158.913 43.082 158.913C37.629 158.913 31.9156 157.355 28.9727 155.018V142.813C33.1273 146.362 37.9747 148.353 42.4756 148.353C48.1017 148.353 51.6503 145.324 51.6504 140.477C51.6504 128.878 29.665 131.215 29.665 112.778C29.665 102.045 37.1956 95.2941 49.0537 95.2939ZM358.116 95.2939C376.466 95.294 389.796 108.624 389.796 126.974C389.796 145.41 376.466 158.913 358.116 158.913C339.766 158.913 326.437 145.41 326.437 126.974C326.437 108.624 339.766 95.2939 358.116 95.2939ZM132.173 137.877C132.173 143.849 135.462 147.398 141.001 147.398C146.454 147.398 149.743 143.849 149.743 137.877V96.5898H162.467V140.561C162.467 151.38 153.638 158.91 141.001 158.91C128.191 158.91 119.363 151.38 119.362 140.561L119.362 96.5898H132.173V137.877ZM204.159 107.324H183.904V121.347H204.159V132.08H183.904V157.614H171.181V96.5918H204.159V107.324ZM245.839 107.322H225.584V121.345H245.839V132.077H225.584V157.611H212.86V96.5898H245.839V107.322ZM288.024 96.5898C307.153 96.59 319.877 108.881 319.877 127.058C319.877 145.321 307.153 157.611 288.024 157.611H272.704V96.5898H288.024ZM430.099 131.731V96.5898H442.131V157.611H434.6L409.412 122.297V157.611H397.468V96.5898H404.998L430.099 131.731ZM484.115 107.322H463.861V121.345H484.115V132.077H463.861V146.879H484.115V157.611H451.138V96.5898H484.115V107.322ZM111.576 107.321H96.5146L96.5146 157.61H83.791V107.321H68.7305V96.5889H111.576V107.321ZM358.116 107.152C347.124 107.152 339.16 115.549 339.16 127.061C339.16 138.572 347.124 147.055 358.116 147.055C369.109 147.055 377.072 138.572 377.072 127.061C377.072 115.549 369.109 107.152 358.116 107.152ZM285.428 146.879H288.197C299.623 146.879 307.153 139.002 307.153 127.058C307.153 115.113 299.622 107.322 288.11 107.322H285.428V146.879ZM61.7764 18.8916C69.7394 18.8916 76.8371 21.3154 82.5498 25.9893L75.7988 36.5488C72.0769 32.7405 67.0561 30.75 61.5166 30.75C50.2645 30.7502 42.2148 39.2326 42.2148 50.8311C42.2149 62.343 50.1783 70.8252 61.4307 70.8252C64.3735 70.8252 67.3165 70.3062 69.9131 69.2676V49.9658H82.377V77.5771C76.2315 80.6931 68.6147 82.5107 61.4307 82.5107C42.3883 82.5107 29.4913 69.6138 29.4912 51.0908C29.4912 32.3082 42.9072 18.8917 61.7764 18.8916ZM339.363 18.8916C347.326 18.8916 354.424 21.3154 360.137 25.9893L353.386 36.5488C349.664 32.7405 344.643 30.75 339.104 30.75C327.851 30.7502 319.802 39.2327 319.802 50.8311C319.802 62.343 327.765 70.8252 339.018 70.8252C341.96 70.8252 344.903 70.3062 347.5 69.2676V49.9658L359.964 49.9658V77.5771C353.818 80.6931 346.202 82.5107 339.018 82.5107C319.975 82.5107 307.078 69.6138 307.078 51.0908C307.078 32.3082 320.494 18.8918 339.363 18.8916ZM491.319 23.6396C492.976 21.3148 496.204 20.7724 498.529 22.4287C500.854 24.0852 501.397 27.3138 499.74 29.6387L464.188 79.5342C463.324 80.7477 461.977 81.5293 460.494 81.6777C459.011 81.8261 457.536 81.3265 456.448 80.3086L432.748 58.1328C430.664 56.1824 430.555 52.9116 432.505 50.8271C434.455 48.7427 437.726 48.6346 439.811 50.585L459.197 68.7227L491.319 23.6396ZM174.616 30.9219H159.555V81.2119H146.831V30.9219H131.771V20.1895H174.616V30.9219ZM123.942 30.9209H103.688V44.9434L123.942 44.9434V55.6768H103.688V70.4775H123.942V81.2109H90.9639V20.1885L123.942 20.1885V30.9209ZM245.615 81.2109H232.892V20.1885L245.615 20.1885V81.2109ZM287.243 55.3301V20.1885L299.274 20.1885V81.2109H291.744L266.557 45.8955V81.2109H254.611V20.1885H262.142L287.243 55.3301ZM224.75 30.9199L209.689 30.9199V81.21L196.966 81.21V30.9199L181.905 30.9199V20.1875H224.75V30.9199ZM430.507 20.5205C432.163 18.1957 435.392 17.6534 437.717 19.3096C440.042 20.966 440.584 24.1947 438.928 26.5195L403.376 76.415C402.511 77.6286 401.164 78.4111 399.682 78.5596C398.199 78.7079 396.724 78.2083 395.636 77.1904L371.936 55.0137C369.851 53.0633 369.742 49.7925 371.692 47.708C373.643 45.6237 376.914 45.5155 378.998 47.4658L398.385 65.6045L430.507 20.5205Z" fill="#A8F28E"/>
<path d="M49.0537 95.2939C53.3815 95.2939 58.4022 96.2462 61.4316 98.4102V110.095C58.2291 107.498 53.6411 105.854 49.7461 105.854C44.8992 105.854 41.9561 108.277 41.9561 112.259C41.9561 122.299 63.9414 120.828 63.9414 139.265C63.9414 150.95 55.4593 158.913 43.082 158.913C37.629 158.913 31.9156 157.355 28.9727 155.018V142.813C33.1273 146.362 37.9747 148.353 42.4756 148.353C48.1017 148.353 51.6503 145.324 51.6504 140.477C51.6504 128.878 29.665 131.215 29.665 112.778C29.665 102.045 37.1956 95.2941 49.0537 95.2939ZM358.116 95.2939C376.466 95.294 389.796 108.624 389.796 126.974C389.796 145.41 376.466 158.913 358.116 158.913C339.766 158.913 326.437 145.41 326.437 126.974C326.437 108.624 339.766 95.2939 358.116 95.2939ZM132.173 137.877C132.173 143.849 135.462 147.398 141.001 147.398C146.454 147.398 149.743 143.849 149.743 137.877V96.5898H162.467V140.561C162.467 151.38 153.638 158.91 141.001 158.91C128.191 158.91 119.363 151.38 119.362 140.561L119.362 96.5898H132.173V137.877ZM204.159 107.324H183.904V121.347H204.159V132.08H183.904V157.614H171.181V96.5918H204.159V107.324ZM245.839 107.322H225.584V121.345H245.839V132.077H225.584V157.611H212.86V96.5898H245.839V107.322ZM288.024 96.5898C307.153 96.59 319.877 108.881 319.877 127.058C319.877 145.321 307.153 157.611 288.024 157.611H272.704V96.5898H288.024ZM430.099 131.731V96.5898H442.131V157.611H434.6L409.412 122.297V157.611H397.468V96.5898H404.998L430.099 131.731ZM484.115 107.322H463.861V121.345H484.115V132.077H463.861V146.879H484.115V157.611H451.138V96.5898H484.115V107.322ZM111.576 107.321H96.5146L96.5146 157.61H83.791V107.321H68.7305V96.5889H111.576V107.321ZM358.116 107.152C347.124 107.152 339.16 115.549 339.16 127.061C339.16 138.572 347.124 147.055 358.116 147.055C369.109 147.055 377.072 138.572 377.072 127.061C377.072 115.549 369.109 107.152 358.116 107.152ZM285.428 146.879H288.197C299.623 146.879 307.153 139.002 307.153 127.058C307.153 115.113 299.622 107.322 288.11 107.322H285.428V146.879ZM61.7764 18.8916C69.7394 18.8916 76.8371 21.3154 82.5498 25.9893L75.7988 36.5488C72.0769 32.7405 67.0561 30.75 61.5166 30.75C50.2645 30.7502 42.2148 39.2326 42.2148 50.8311C42.2149 62.343 50.1783 70.8252 61.4307 70.8252C64.3735 70.8252 67.3165 70.3062 69.9131 69.2676V49.9658H82.377V77.5771C76.2315 80.6931 68.6147 82.5107 61.4307 82.5107C42.3883 82.5107 29.4913 69.6138 29.4912 51.0908C29.4912 32.3082 42.9072 18.8917 61.7764 18.8916ZM339.363 18.8916C347.326 18.8916 354.424 21.3154 360.137 25.9893L353.386 36.5488C349.664 32.7405 344.643 30.75 339.104 30.75C327.851 30.7502 319.802 39.2327 319.802 50.8311C319.802 62.343 327.765 70.8252 339.018 70.8252C341.96 70.8252 344.903 70.3062 347.5 69.2676V49.9658L359.964 49.9658V77.5771C353.818 80.6931 346.202 82.5107 339.018 82.5107C319.975 82.5107 307.078 69.6138 307.078 51.0908C307.078 32.3082 320.494 18.8918 339.363 18.8916ZM491.319 23.6396C492.976 21.3148 496.204 20.7724 498.529 22.4287C500.854 24.0852 501.397 27.3138 499.74 29.6387L464.188 79.5342C463.324 80.7477 461.977 81.5293 460.494 81.6777C459.011 81.8261 457.536 81.3265 456.448 80.3086L432.748 58.1328C430.664 56.1824 430.555 52.9116 432.505 50.8271C434.455 48.7427 437.726 48.6346 439.811 50.585L459.197 68.7227L491.319 23.6396ZM174.616 30.9219H159.555V81.2119H146.831V30.9219H131.771V20.1895H174.616V30.9219ZM123.942 30.9209H103.688V44.9434L123.942 44.9434V55.6768H103.688V70.4775H123.942V81.2109H90.9639V20.1885L123.942 20.1885V30.9209ZM245.615 81.2109H232.892V20.1885L245.615 20.1885V81.2109ZM287.243 55.3301V20.1885L299.274 20.1885V81.2109H291.744L266.557 45.8955V81.2109H254.611V20.1885H262.142L287.243 55.3301ZM224.75 30.9199L209.689 30.9199V81.21L196.966 81.21V30.9199L181.905 30.9199V20.1875H224.75V30.9199ZM430.507 20.5205C432.163 18.1957 435.392 17.6534 437.717 19.3096C440.042 20.966 440.584 24.1947 438.928 26.5195L403.376 76.415C402.511 77.6286 401.164 78.4111 399.682 78.5596C398.199 78.7079 396.724 78.2083 395.636 77.1904L371.936 55.0137C369.851 53.0633 369.742 49.7925 371.692 47.708C373.643 45.6237 376.914 45.5155 378.998 47.4658L398.385 65.6045L430.507 20.5205Z" fill="#A8F28E"/>
<path d="M49.0537 95.2939C53.3815 95.2939 58.4022 96.2462 61.4316 98.4102V110.095C58.2291 107.498 53.6411 105.854 49.7461 105.854C44.8992 105.854 41.9561 108.277 41.9561 112.259C41.9561 122.299 63.9414 120.828 63.9414 139.265C63.9414 150.95 55.4593 158.913 43.082 158.913C37.629 158.913 31.9156 157.355 28.9727 155.018V142.813C33.1273 146.362 37.9747 148.353 42.4756 148.353C48.1017 148.353 51.6503 145.324 51.6504 140.477C51.6504 128.878 29.665 131.215 29.665 112.778C29.665 102.045 37.1956 95.2941 49.0537 95.2939ZM358.116 95.2939C376.466 95.294 389.796 108.624 389.796 126.974C389.796 145.41 376.466 158.913 358.116 158.913C339.766 158.913 326.437 145.41 326.437 126.974C326.437 108.624 339.766 95.2939 358.116 95.2939ZM132.173 137.877C132.173 143.849 135.462 147.398 141.001 147.398C146.454 147.398 149.743 143.849 149.743 137.877V96.5898H162.467V140.561C162.467 151.38 153.638 158.91 141.001 158.91C128.191 158.91 119.363 151.38 119.362 140.561L119.362 96.5898H132.173V137.877ZM204.159 107.324H183.904V121.347H204.159V132.08H183.904V157.614H171.181V96.5918H204.159V107.324ZM245.839 107.322H225.584V121.345H245.839V132.077H225.584V157.611H212.86V96.5898H245.839V107.322ZM288.024 96.5898C307.153 96.59 319.877 108.881 319.877 127.058C319.877 145.321 307.153 157.611 288.024 157.611H272.704V96.5898H288.024ZM430.099 131.731V96.5898H442.131V157.611H434.6L409.412 122.297V157.611H397.468V96.5898H404.998L430.099 131.731ZM484.115 107.322H463.861V121.345H484.115V132.077H463.861V146.879H484.115V157.611H451.138V96.5898H484.115V107.322ZM111.576 107.321H96.5146L96.5146 157.61H83.791V107.321H68.7305V96.5889H111.576V107.321ZM358.116 107.152C347.124 107.152 339.16 115.549 339.16 127.061C339.16 138.572 347.124 147.055 358.116 147.055C369.109 147.055 377.072 138.572 377.072 127.061C377.072 115.549 369.109 107.152 358.116 107.152ZM285.428 146.879H288.197C299.623 146.879 307.153 139.002 307.153 127.058C307.153 115.113 299.622 107.322 288.11 107.322H285.428V146.879ZM61.7764 18.8916C69.7394 18.8916 76.8371 21.3154 82.5498 25.9893L75.7988 36.5488C72.0769 32.7405 67.0561 30.75 61.5166 30.75C50.2645 30.7502 42.2148 39.2326 42.2148 50.8311C42.2149 62.343 50.1783 70.8252 61.4307 70.8252C64.3735 70.8252 67.3165 70.3062 69.9131 69.2676V49.9658H82.377V77.5771C76.2315 80.6931 68.6147 82.5107 61.4307 82.5107C42.3883 82.5107 29.4913 69.6138 29.4912 51.0908C29.4912 32.3082 42.9072 18.8917 61.7764 18.8916ZM339.363 18.8916C347.326 18.8916 354.424 21.3154 360.137 25.9893L353.386 36.5488C349.664 32.7405 344.643 30.75 339.104 30.75C327.851 30.7502 319.802 39.2327 319.802 50.8311C319.802 62.343 327.765 70.8252 339.018 70.8252C341.96 70.8252 344.903 70.3062 347.5 69.2676V49.9658L359.964 49.9658V77.5771C353.818 80.6931 346.202 82.5107 339.018 82.5107C319.975 82.5107 307.078 69.6138 307.078 51.0908C307.078 32.3082 320.494 18.8918 339.363 18.8916ZM491.319 23.6396C492.976 21.3148 496.204 20.7724 498.529 22.4287C500.854 24.0852 501.397 27.3138 499.74 29.6387L464.188 79.5342C463.324 80.7477 461.977 81.5293 460.494 81.6777C459.011 81.8261 457.536 81.3265 456.448 80.3086L432.748 58.1328C430.664 56.1824 430.555 52.9116 432.505 50.8271C434.455 48.7427 437.726 48.6346 439.811 50.585L459.197 68.7227L491.319 23.6396ZM174.616 30.9219H159.555V81.2119H146.831V30.9219H131.771V20.1895H174.616V30.9219ZM123.942 30.9209H103.688V44.9434L123.942 44.9434V55.6768H103.688V70.4775H123.942V81.2109H90.9639V20.1885L123.942 20.1885V30.9209ZM245.615 81.2109H232.892V20.1885L245.615 20.1885V81.2109ZM287.243 55.3301V20.1885L299.274 20.1885V81.2109H291.744L266.557 45.8955V81.2109H254.611V20.1885H262.142L287.243 55.3301ZM224.75 30.9199L209.689 30.9199V81.21L196.966 81.21V30.9199L181.905 30.9199V20.1875H224.75V30.9199ZM430.507 20.5205C432.163 18.1957 435.392 17.6534 437.717 19.3096C440.042 20.966 440.584 24.1947 438.928 26.5195L403.376 76.415C402.511 77.6286 401.164 78.4111 399.682 78.5596C398.199 78.7079 396.724 78.2083 395.636 77.1904L371.936 55.0137C369.851 53.0633 369.742 49.7925 371.692 47.708C373.643 45.6237 376.914 45.5155 378.998 47.4658L398.385 65.6045L430.507 20.5205Z" fill="url(#paint0_linear_334_382)"/>
<defs>
<filter id="filter0_d_334_382" x="0.629416" y="1.19531" width="528.405" height="197.239" filterUnits="userSpaceOnUse" color-interpolation-filters="sRGB">
<feFlood flood-opacity="0" result="BackgroundImageFix"/>
<feColorMatrix in="SourceAlpha" type="matrix" values="0 0 0 0 0 0 0 0 0 0 0 0 0 0 0 0 0 0 127 0" result="hardAlpha"/>
<feOffset dy="11.187"/>
<feGaussianBlur stdDeviation="5.59349"/>
<feComposite in2="hardAlpha" operator="out"/>
<feColorMatrix type="matrix" values="0 0 0 0 0 0 0 0 0 0 0 0 0 0 0 0 0 0 0.12 0"/>
<feBlend mode="normal" in2="BackgroundImageFix" result="effect1_dropShadow_334_382"/>
<feBlend mode="normal" in="SourceGraphic" in2="effect1_dropShadow_334_382" result="shape"/>
</filter>
<linearGradient id="paint0_linear_334_382" x1="264.984" y1="-24.5247" x2="311.02" y2="116.03" gradientUnits="userSpaceOnUse">
<stop offset="0.000789677" stop-color="#94F27F"/>
<stop offset="1" stop-color="#6BC850"/>
</linearGradient>
</defs>
</svg>
