<svg width="1808" height="160" viewBox="0 0 1808 160" fill="none" xmlns="http://www.w3.org/2000/svg">
<g clip-path="url(#clip0_274_503)">
<path d="M518.349 121.262H517.516C513.354 126.256 506.362 129.086 497.705 129.086C479.393 129.086 466.574 116.767 466.574 99.1205C466.574 81.4739 479.559 69.654 498.205 69.654C505.863 69.654 512.522 71.6518 517.183 74.9813V70.4864C517.183 62.1625 511.856 58.1671 500.036 58.1671C492.545 58.1671 484.221 59.6654 478.394 61.8296L481.058 42.8512C488.383 41.0199 495.874 40.354 503.699 40.354C529.669 40.354 539.824 48.5114 539.824 68.8216V126.589L519.015 126.589L518.349 121.262ZM488.216 98.7876C488.216 106.778 494.542 112.439 503.366 112.439C512.023 112.439 518.182 106.778 518.182 98.7876C518.182 91.1296 512.023 85.4694 503.366 85.4694C494.542 85.4694 488.216 91.1296 488.216 98.7876Z" fill="black"/>
<path d="M451.889 9.22266V126.589H429.082V9.22266L451.889 9.22266Z" fill="black"/>
<path d="M323.992 84.4705C323.992 58.5 342.471 40.021 369.274 40.021C396.077 40.021 414.556 58.5 414.556 84.4705C414.556 110.607 396.077 129.086 369.274 129.086C342.471 129.086 323.992 110.607 323.992 84.4705ZM344.968 84.304C344.968 99.4534 355.123 110.274 369.274 110.274C383.425 110.274 393.58 99.4534 393.58 84.304C393.58 69.654 383.425 58.8329 369.274 58.8329C355.123 58.8329 344.968 69.654 344.968 84.304Z" fill="black"/>
<path d="M310.346 126.589L287.705 126.589V74.4818C287.705 64.4932 282.71 58.9994 274.387 58.9994C265.064 58.9994 259.237 65.6585 259.237 76.1466V126.589H236.43V42.5182H258.738V50.1761H259.404C263.399 44.1829 272.056 40.021 282.211 40.021C299.192 40.021 310.346 51.3415 310.346 67.8227V126.589Z" fill="black"/>
<path d="M198.399 121.262H197.567C193.405 126.256 186.413 129.086 177.756 129.086C159.444 129.086 146.625 116.767 146.625 99.1205C146.625 81.4739 159.61 69.654 178.256 69.654C185.914 69.654 192.573 71.6518 197.234 74.9813V70.4864C197.234 62.1625 191.907 58.1671 180.087 58.1671C172.595 58.1671 164.272 59.6654 158.445 61.8296L161.109 42.8512C168.434 41.0199 175.925 40.354 183.749 40.354C209.72 40.354 219.875 48.5114 219.875 68.8216V126.589L199.065 126.589L198.399 121.262ZM168.267 98.7876C168.267 106.778 174.593 112.439 183.417 112.439C192.073 112.439 198.233 106.778 198.233 98.7876C198.233 91.1296 192.073 85.4694 183.417 85.4694C174.593 85.4694 168.267 91.1296 168.267 98.7876Z" fill="black"/>
<path d="M144.954 42.5181V61.8294C131.969 61.8294 123.811 68.988 123.811 79.6425V126.589H101.004L101.004 42.5181H123.145V51.6743H123.978C127.807 45.8476 135.631 42.5181 144.954 42.5181Z" fill="black"/>
<path d="M43.2827 112.938C22.9725 112.938 7.1571 98.1215 7.1571 77.6448C7.1571 57.0016 22.9725 42.5181 45.1139 42.5181H85.7344V43.3504L78.0765 58.0005H74.7469C79.9077 63.1613 82.9043 69.9868 82.9043 77.8113C82.9043 87.134 78.7424 95.4579 72.5827 99.7863V100.286C80.7401 104.281 85.9009 114.27 85.9009 125.59C85.9009 145.734 69.2532 159.885 44.9475 159.885C26.8014 159.885 11.319 152.06 3.32812 139.075L17.8117 126.09C23.8048 135.412 34.1264 141.239 45.4469 141.239C56.9338 141.239 64.9248 135.079 64.9248 126.09C64.9248 118.099 59.098 112.771 50.9407 112.771C48.4435 112.771 47.4446 112.938 43.2827 112.938ZM27.6338 77.6448C27.6338 87.3005 34.7923 94.6255 44.9475 94.6255C55.1026 94.6255 62.5941 87.3005 62.5941 77.6448C62.5941 68.4885 55.1026 60.8306 44.9475 60.8306C34.9588 60.8306 27.6338 68.322 27.6338 77.6448Z" fill="black"/>
<path d="M1400.49 130.645V28.459L1452.07 28.459C1464.41 28.459 1474.59 30.6083 1482.63 34.9069C1490.76 39.1121 1496.79 45.0461 1500.71 52.7089C1504.73 60.3717 1506.74 69.3428 1506.74 79.6222C1506.74 88.126 1505.43 95.6019 1502.81 102.05C1500.29 108.404 1496.65 113.731 1491.88 118.03C1487.12 122.235 1481.37 125.412 1474.64 127.561C1467.91 129.617 1460.39 130.645 1452.07 130.645H1400.49ZM1432.45 106.115H1445.48C1450.81 106.115 1455.3 105.554 1458.94 104.433C1462.68 103.218 1465.67 101.442 1467.91 99.1063C1470.15 96.77 1471.79 93.9199 1472.82 90.5557C1473.85 87.1915 1474.36 83.3601 1474.36 79.0615C1474.36 72.2397 1473.14 66.9599 1470.72 63.2219C1468.29 59.484 1464.87 56.8674 1460.48 55.3722C1456.18 53.7836 1451.18 52.9893 1445.48 52.9893H1432.45V106.115Z" fill="black"/>
<path d="M1299.33 130.645V28.459L1388.76 28.459V53.55H1325.12L1331.43 47.2422V74.0153L1325.12 67.7075H1381.75V91.1164H1325.12L1331.43 84.8086V111.862L1325.12 105.554H1389.18V130.645H1299.33Z" fill="black"/>
<path d="M1175.72 130.645V28.459H1207.82V68.5485L1205.72 66.4459H1254.22L1252.11 68.5485V28.459H1284.21V130.645H1252.11V89.2941L1254.22 91.3967H1205.72L1207.82 89.2941V130.645H1175.72Z" fill="black"/>
<path d="M1109.8 132.047C1100.27 132.047 1091.81 130.832 1084.43 128.402C1077.05 125.879 1070.79 122.328 1065.65 117.749C1060.6 113.077 1056.77 107.517 1054.15 101.069C1051.53 94.6206 1050.23 87.425 1050.23 79.4819C1050.23 71.5387 1051.53 64.3432 1054.15 57.8952C1056.77 51.4473 1060.6 45.9338 1065.65 41.3548C1070.79 36.7758 1077.05 33.2715 1084.43 30.8418C1091.81 28.3187 1100.27 27.0571 1109.8 27.0571C1120.64 27.0571 1130.03 28.6458 1137.97 31.823C1145.92 35.0003 1152.23 39.3924 1156.9 44.9993C1161.57 50.6062 1164.33 57.1476 1165.17 64.6235H1132.93C1132.18 62.1004 1130.69 59.9044 1128.44 58.0354C1126.2 56.1664 1123.49 54.718 1120.31 53.69C1117.14 52.6621 1113.63 52.1481 1109.8 52.1481C1104.38 52.1481 1099.61 53.1293 1095.5 55.0918C1091.39 56.9607 1088.21 59.9044 1085.97 63.9227C1083.73 67.941 1082.61 73.1274 1082.61 79.4819C1082.61 84.2478 1083.26 88.3595 1084.57 91.8171C1085.88 95.1813 1087.7 97.9847 1090.04 100.228C1092.47 102.47 1095.32 104.152 1098.59 105.274C1101.95 106.302 1105.69 106.816 1109.8 106.816C1113.54 106.816 1117.04 106.302 1120.31 105.274C1123.58 104.246 1126.34 102.797 1128.58 100.928C1130.92 99.0594 1132.46 96.8634 1133.21 94.3402H1165.17C1164.33 101.91 1161.38 108.544 1156.34 114.245C1151.29 119.852 1144.75 124.244 1136.71 127.421C1128.68 130.505 1119.71 132.047 1109.8 132.047Z" fill="black"/>
<path d="M929.32 130.645V28.459L968.008 28.459L1007.54 88.7334H1008.66L1007.82 59.9979V28.459H1039.64V130.645H1001.51L961.981 71.2118H960.719L961.7 98.9661V130.645H929.32Z" fill="black"/>
<path d="M864.233 132.047C853.86 132.047 844.842 130.458 837.18 127.281C829.517 124.104 823.536 119.104 819.237 112.283C815.032 105.461 812.93 96.6766 812.93 85.93V28.459H844.469V86.0702C844.469 89.995 845.029 93.4526 846.151 96.443C847.366 99.4333 849.375 101.77 852.178 103.452C855.075 105.134 859.093 105.975 864.233 105.975C868.158 105.975 871.569 105.414 874.466 104.293C877.456 103.171 879.792 101.162 881.474 98.2652C883.156 95.3683 883.997 91.3033 883.997 86.0702V28.459H915.677V85.93C915.677 95.088 913.901 103.171 910.35 110.18C906.892 117.095 901.379 122.468 893.81 126.3C886.24 130.131 876.381 132.047 864.233 132.047Z" fill="black"/>
<path d="M700.309 130.645V28.459L762.545 28.459C768.152 28.459 773.432 28.973 778.385 30.0009C783.431 31.0288 787.87 32.7576 791.702 35.1873C795.533 37.5235 798.523 40.7475 800.673 44.8592C802.915 48.8775 804.037 53.9238 804.037 59.9979C804.037 65.9787 802.355 71.3052 798.991 75.9777C795.72 80.5567 791.141 83.547 785.254 84.9488V85.93C790.58 86.8645 794.598 88.9671 797.308 92.2378C800.018 95.415 801.373 99.9473 801.373 105.835V117.889C801.373 119.945 801.42 122.048 801.514 124.197C801.701 126.347 802.261 128.496 803.196 130.645H770.956C770.395 129.43 769.975 127.795 769.694 125.739C769.414 123.683 769.274 121.16 769.274 118.17V110.18C769.274 107.75 768.9 105.694 768.152 104.012C767.405 102.237 766.097 100.882 764.228 99.9473C762.359 98.9194 759.695 98.4054 756.238 98.4054H732.408V130.645H700.309ZM732.408 75.6973H755.957C762.032 75.6973 766.143 74.576 768.293 72.3332C770.442 70.0904 771.517 67.1468 771.517 63.5023C771.517 60.6054 770.862 58.3626 769.554 56.774C768.246 55.1853 766.424 54.0639 764.087 53.4098C761.751 52.7557 759.041 52.4286 755.957 52.4286H732.408V75.6973Z" fill="black"/>
<path d="M634.386 132.047C624.854 132.047 616.397 130.832 609.015 128.402C601.632 125.879 595.371 122.328 590.232 117.749C585.185 113.077 581.354 107.517 578.737 101.069C576.121 94.6206 574.812 87.425 574.812 79.4819C574.812 71.5387 576.121 64.3432 578.737 57.8952C581.354 51.4473 585.185 45.9338 590.232 41.3548C595.371 36.7758 601.632 33.2715 609.015 30.8418C616.397 28.3187 624.854 27.0571 634.386 27.0571C645.226 27.0571 654.618 28.6458 662.561 31.823C670.504 35.0003 676.812 39.3924 681.484 44.9993C686.157 50.6062 688.913 57.1476 689.755 64.6235H657.515C656.767 62.1004 655.272 59.9044 653.029 58.0354C650.786 56.1664 648.076 54.718 644.899 53.69C641.722 52.6621 638.217 52.1481 634.386 52.1481C628.966 52.1481 624.2 53.1293 620.088 55.0918C615.977 56.9607 612.799 59.9044 610.557 63.9227C608.314 67.941 607.193 73.1274 607.193 79.4819C607.193 84.2478 607.847 88.3595 609.155 91.8171C610.463 95.1813 612.285 97.9847 614.622 100.228C617.051 102.47 619.902 104.152 623.172 105.274C626.536 106.302 630.274 106.816 634.386 106.816C638.124 106.816 641.628 106.302 644.899 105.274C648.17 104.246 650.927 102.797 653.169 100.928C655.506 99.0594 657.047 96.8634 657.795 94.3402H689.755C688.913 101.91 685.97 108.544 680.924 114.245C675.877 119.852 669.336 124.244 661.299 127.421C653.263 130.505 644.292 132.047 634.386 132.047Z" fill="black"/>
<rect x="1533.36" y="16.5566" width="274.012" height="125.991" rx="62.9953" fill="url(#paint0_linear_274_503)"/>
<path d="M1738.19 116.777C1733.76 116.777 1730.06 115.836 1727.11 113.956C1724.15 112.008 1721.93 109.321 1720.46 105.896C1718.98 102.403 1718.17 98.373 1718.04 93.8056H1731.94C1731.88 96.4923 1732.11 98.7088 1732.65 100.455C1733.19 102.134 1733.92 103.377 1734.86 104.183C1735.87 104.922 1736.98 105.291 1738.19 105.291C1740.54 105.291 1742.22 104.183 1743.23 101.966C1744.23 99.7499 1744.74 96.358 1744.74 91.7906C1744.74 88.4994 1744.47 85.9135 1743.93 84.0328C1743.46 82.085 1742.76 80.7081 1741.82 79.9021C1740.88 79.0289 1739.73 78.5923 1738.39 78.5923C1736.58 78.5923 1735.17 79.3648 1734.16 80.9096C1733.22 82.3873 1732.65 84.3687 1732.45 86.8539H1718.95L1720.66 43.229L1755.82 43.229V55.0168L1733.35 55.0168L1732.35 71.5398L1732.95 71.8421C1733.76 70.2301 1734.97 69.0546 1736.58 68.3158C1738.19 67.5098 1739.94 67.1068 1741.82 67.1068C1744.7 67.1068 1747.19 67.6777 1749.27 68.8196C1751.42 69.9614 1753.17 71.607 1754.51 73.7563C1755.85 75.8385 1756.86 78.3908 1757.53 81.4133C1758.2 84.3687 1758.54 87.6934 1758.54 91.3876C1758.54 97.164 1757.7 101.966 1756.02 105.795C1754.41 109.556 1752.06 112.344 1748.97 114.157C1745.95 115.904 1742.35 116.777 1738.19 116.777Z" fill="white"/>
<path d="M1675.16 115.87V112.041C1675.16 109.489 1675.6 106.97 1676.47 104.485C1677.34 101.933 1678.49 99.4476 1679.9 97.0296C1681.31 94.6116 1682.85 92.2272 1684.53 89.8764C1686.28 87.4584 1687.99 85.1075 1689.67 82.8239C1691.35 80.473 1692.89 78.1558 1694.3 75.8721C1695.71 73.5884 1696.86 71.3383 1697.73 69.1218C1698.6 66.9053 1699.04 64.7224 1699.04 62.5731C1699.04 60.6252 1698.84 59.0132 1698.44 57.737C1698.03 56.4609 1697.39 55.5205 1696.52 54.916C1695.71 54.2444 1694.71 53.9085 1693.5 53.9085C1691.82 53.9085 1690.54 54.513 1689.67 55.722C1688.86 56.931 1688.33 58.5095 1688.06 60.4573C1687.86 62.4051 1687.82 64.5881 1687.96 67.0061H1674.36C1674.15 61.9014 1674.73 57.502 1676.07 53.8078C1677.48 50.1136 1679.66 47.2926 1682.62 45.3448C1685.64 43.3298 1689.27 42.3223 1693.5 42.3223C1697.53 42.3223 1700.99 43.0611 1703.88 44.5388C1706.83 45.9493 1709.08 48.1322 1710.63 51.0875C1712.17 54.0429 1712.94 57.7706 1712.94 62.2708C1712.94 64.8903 1712.57 67.4427 1711.83 69.9278C1711.1 72.3458 1710.12 74.7303 1708.91 77.0811C1707.7 79.4319 1706.36 81.682 1704.88 83.8314C1703.41 85.9807 1701.93 88.0629 1700.45 90.0779C1699.04 92.0257 1697.7 93.8728 1696.42 95.6191C1695.21 97.2983 1694.2 98.8767 1693.4 100.354C1692.66 101.832 1692.26 103.175 1692.19 104.384H1713.65V115.87H1675.16Z" fill="white"/>
<path d="M1648.77 116.877C1645.42 116.877 1642.43 116.172 1639.81 114.762C1637.26 113.351 1635.04 111.168 1633.16 108.213C1631.34 105.257 1629.97 101.429 1629.03 96.7272C1628.09 91.9584 1627.62 86.2492 1627.62 79.5997C1627.62 72.9502 1628.09 67.2746 1629.03 62.5729C1629.97 57.8712 1631.34 54.0427 1633.16 51.0874C1635.04 48.0649 1637.26 45.8819 1639.81 44.5386C1642.43 43.1281 1645.42 42.4229 1648.77 42.4229C1652.13 42.4229 1655.09 43.1281 1657.64 44.5386C1660.26 45.8819 1662.48 48.0649 1664.29 51.0874C1666.17 54.0427 1667.58 57.8712 1668.52 62.5729C1669.46 67.2746 1669.93 72.9502 1669.93 79.5997C1669.93 86.2492 1669.46 91.9584 1668.52 96.7272C1667.58 101.429 1666.17 105.257 1664.29 108.213C1662.48 111.168 1660.26 113.351 1657.64 114.762C1655.09 116.172 1652.13 116.877 1648.77 116.877ZM1648.77 105.291C1650.05 105.291 1651.16 104.888 1652.1 104.082C1653.04 103.209 1653.78 101.798 1654.32 99.8505C1654.92 97.9026 1655.36 95.2831 1655.63 91.992C1655.89 88.6336 1656.03 84.5029 1656.03 79.5997C1656.03 74.6965 1655.89 70.5993 1655.63 67.3082C1655.36 64.017 1654.92 61.3975 1654.32 59.4496C1653.78 57.5018 1653.04 56.0913 1652.1 55.2181C1651.16 54.345 1650.05 53.9084 1648.77 53.9084C1647.5 53.9084 1646.39 54.345 1645.45 55.2181C1644.58 56.0241 1643.84 57.4346 1643.23 59.4496C1642.63 61.3975 1642.19 64.017 1641.92 67.3082C1641.66 70.5993 1641.52 74.6965 1641.52 79.5997C1641.52 84.5029 1641.66 88.6336 1641.92 91.992C1642.19 95.2831 1642.63 97.9026 1643.23 99.8505C1643.84 101.798 1644.58 103.209 1645.45 104.082C1646.39 104.888 1647.5 105.291 1648.77 105.291Z" fill="white"/>
<path d="M1585.04 115.87V112.041C1585.04 109.489 1585.47 106.97 1586.35 104.485C1587.22 101.933 1588.36 99.4476 1589.77 97.0296C1591.18 94.6116 1592.73 92.2272 1594.41 89.8764C1596.15 87.4584 1597.87 85.1075 1599.54 82.8239C1601.22 80.473 1602.77 78.1558 1604.18 75.8721C1605.59 73.5884 1606.73 71.3383 1607.6 69.1218C1608.48 66.9053 1608.91 64.7224 1608.91 62.5731C1608.91 60.6252 1608.71 59.0132 1608.31 57.737C1607.91 56.4609 1607.27 55.5205 1606.4 54.916C1605.59 54.2444 1604.58 53.9085 1603.37 53.9085C1601.69 53.9085 1600.42 54.513 1599.54 55.722C1598.74 56.931 1598.2 58.5095 1597.93 60.4573C1597.73 62.4051 1597.7 64.5881 1597.83 67.0061H1584.23C1584.03 61.9014 1584.6 57.502 1585.94 53.8078C1587.35 50.1136 1589.54 47.2926 1592.49 45.3448C1595.51 43.3298 1599.14 42.3223 1603.37 42.3223C1607.4 42.3223 1610.86 43.0611 1613.75 44.5388C1616.71 45.9493 1618.96 48.1322 1620.5 51.0875C1622.05 54.0429 1622.82 57.7706 1622.82 62.2708C1622.82 64.8903 1622.45 67.4427 1621.71 69.9278C1620.97 72.3458 1620 74.7303 1618.79 77.0811C1617.58 79.4319 1616.24 81.682 1614.76 83.8314C1613.28 85.9807 1611.8 88.0629 1610.33 90.0779C1608.91 92.0257 1607.57 93.8728 1606.3 95.6191C1605.09 97.2983 1604.08 98.8767 1603.27 100.354C1602.53 101.832 1602.13 103.175 1602.06 104.384H1623.52V115.87H1585.04Z" fill="white"/>
</g>
<defs>
<linearGradient id="paint0_linear_274_503" x1="1670.45" y1="-21.874" x2="1726.61" y2="89.2421" gradientUnits="userSpaceOnUse">
<stop offset="0.000789677" stop-color="#94F27F"/>
<stop offset="1" stop-color="#6BC850"/>
</linearGradient>
<clipPath id="clip0_274_503">
<rect width="1808" height="160" fill="white"/>
</clipPath>
</defs>
</svg>
