<svg width="16" height="16" viewBox="0 0 16 16" fill="none" xmlns="http://www.w3.org/2000/svg">
<g clip-path="url(#clip0_2005_6177)">
<mask id="mask0_2005_6177" style="mask-type:luminance" maskUnits="userSpaceOnUse" x="0" y="0" width="16" height="16">
<path d="M14 0H2C0.89543 0 0 0.89543 0 2V14C0 15.1046 0.89543 16 2 16H14C15.1046 16 16 15.1046 16 14V2C16 0.89543 15.1046 0 14 0Z" fill="white"/>
</mask>
<g mask="url(#mask0_2005_6177)">
<path d="M5.6548 2.89347C5.78075 2.10021 6.5259 1.55925 7.31915 1.6852L14.5007 2.82541C15.294 2.95135 15.8349 3.69651 15.709 4.48977L14.3407 13.1077C14.2147 13.9009 13.4696 14.4419 12.6763 14.3159L5.49478 13.1757C4.70153 13.0497 4.16057 12.3046 4.28652 11.5113L5.6548 2.89347Z" fill="url(#paint0_linear_2005_6177)"/>
<path d="M5.6548 2.89347C5.78075 2.10021 6.5259 1.55925 7.31915 1.6852L14.5007 2.82541C15.294 2.95135 15.8349 3.69651 15.709 4.48977L14.3407 13.1077C14.2147 13.9009 13.4696 14.4419 12.6763 14.3159L5.49478 13.1757C4.70153 13.0497 4.16057 12.3046 4.28652 11.5113L5.6548 2.89347Z" fill="white" fill-opacity="0.6"/>
<path d="M7.29038 1.86453L14.4719 3.00476C15.1659 3.11495 15.6391 3.76699 15.5291 4.46102L14.1608 13.0787C14.0506 13.7728 13.3985 14.247 12.7044 14.1368L5.52291 12.9966C4.82893 12.8863 4.35569 12.2334 4.46588 11.5394L5.83413 2.92172C5.94444 2.22782 6.59644 1.75446 7.29038 1.86453Z" stroke="black" stroke-opacity="0.1" stroke-width="0.363576"/>
<path d="M7.03482 3.4802C7.06631 3.28189 7.2526 3.14665 7.45091 3.17814L13.9143 4.20435C14.1126 4.23584 14.2478 4.42213 14.2164 4.62044C14.1849 4.81876 13.9986 4.954 13.8003 4.92251L7.33689 3.89629C7.13858 3.86481 7.00334 3.67852 7.03482 3.4802Z" fill="#4D4D4D" fill-opacity="0.2"/>
<path d="M6.85123 4.63645C6.88272 4.43814 7.069 4.3029 7.26732 4.33439L13.7308 5.3606C13.9291 5.39209 14.0643 5.57838 14.0328 5.77669C14.0014 5.97501 13.8151 6.11025 13.6168 6.07876L7.15329 5.05254C6.95498 5.02106 6.81974 4.83477 6.85123 4.63645Z" fill="#4D4D4D" fill-opacity="0.2"/>
<path d="M6.66764 5.79466C6.69912 5.59634 6.88541 5.4611 7.08372 5.49259L11.3927 6.17673C11.591 6.20822 11.7263 6.39451 11.6948 6.59282C11.6633 6.79114 11.477 6.92638 11.2787 6.89489L6.9697 6.21075C6.77139 6.17926 6.63615 5.99297 6.66764 5.79466Z" fill="#4D4D4D" fill-opacity="0.2"/>
<path d="M6.4838 6.95091C6.51529 6.75259 6.70158 6.61735 6.89989 6.64884L9.05436 6.99091C9.25268 7.0224 9.38792 7.20869 9.35643 7.407C9.32494 7.60532 9.13865 7.74056 8.94034 7.70907L6.78586 7.367C6.58755 7.33551 6.45231 7.14922 6.4838 6.95091Z" fill="#4D4D4D" fill-opacity="0.2"/>
<path d="M2.9725 2.20415C2.98445 1.40105 3.64518 0.759704 4.44828 0.771649L11.719 0.879797C12.5221 0.891743 13.1635 1.55247 13.1515 2.35557L13.0217 11.0805C13.0098 11.8836 12.349 12.5249 11.5459 12.513L4.2752 12.4048C3.47209 12.3928 2.83074 11.7321 2.84269 10.929L2.9725 2.20415Z" fill="url(#paint1_linear_2005_6177)"/>
<path d="M2.9725 2.20415C2.98445 1.40105 3.64518 0.759704 4.44828 0.771649L11.719 0.879797C12.5221 0.891743 13.1635 1.55247 13.1515 2.35557L13.0217 11.0805C13.0098 11.8836 12.349 12.5249 11.5459 12.513L4.2752 12.4048C3.47209 12.3928 2.83074 11.7321 2.84269 10.929L2.9725 2.20415Z" fill="white" fill-opacity="0.6"/>
<path d="M4.44537 0.953266L11.7161 1.06144C12.4187 1.07189 12.9798 1.65007 12.9694 2.35269L12.8396 11.0773C12.8292 11.78 12.2511 12.3421 11.5484 12.3317L4.27768 12.2235C3.57506 12.2129 3.01385 11.6339 3.02431 10.9313L3.15412 2.20665C3.1647 1.50412 3.74283 0.942923 4.44537 0.953266Z" stroke="black" stroke-opacity="0.1" stroke-width="0.363576"/>
<path d="M4.42216 2.58815C4.42515 2.38737 4.59033 2.22703 4.79111 2.23002L11.3348 2.32738C11.5356 2.33037 11.6959 2.49555 11.6929 2.69633C11.6899 2.8971 11.5248 3.05744 11.324 3.05445L4.78029 2.95709C4.57951 2.9541 4.41918 2.78892 4.42216 2.58815Z" fill="#4D4D4D" fill-opacity="0.2"/>
<path d="M4.40483 3.76002C4.40781 3.55925 4.573 3.39891 4.77377 3.4019L11.3174 3.49926C11.5182 3.50224 11.6786 3.66743 11.6756 3.8682C11.6726 4.06898 11.5074 4.22932 11.3066 4.22633L4.76295 4.12897C4.56218 4.12598 4.40184 3.9608 4.40483 3.76002Z" fill="#4D4D4D" fill-opacity="0.2"/>
<path d="M4.38749 4.92994C4.39048 4.72917 4.55566 4.56883 4.75644 4.57182L9.11887 4.63672C9.31965 4.63971 9.47999 4.80489 9.477 5.00567C9.47401 5.20644 9.30883 5.36678 9.10806 5.3638L4.74562 5.29889C4.54484 5.2959 4.38451 5.13072 4.38749 4.92994Z" fill="#4D4D4D" fill-opacity="0.2"/>
<path d="M4.36991 6.10182C4.37289 5.90104 4.53808 5.74071 4.73885 5.74369L6.92007 5.77614C7.12085 5.77913 7.28118 5.94431 7.2782 6.14509C7.27521 6.34587 7.11003 6.5062 6.90925 6.50322L4.72803 6.47076C4.52726 6.46778 4.36692 6.30259 4.36991 6.10182Z" fill="#4D4D4D" fill-opacity="0.2"/>
<path d="M0.351503 5.16172C0.295475 4.36049 0.899581 3.66554 1.70081 3.60951L8.95462 3.10224C9.75586 3.04621 10.4509 3.65032 10.5069 4.45156L11.1156 13.1562C11.1716 13.9574 10.5675 14.6523 9.76621 14.7084L2.51239 15.2156C1.71116 15.2716 1.01621 14.6675 0.960184 13.8663L0.351503 5.16172Z" fill="url(#paint2_linear_2005_6177)"/>
<path d="M0.351503 5.16172C0.295475 4.36049 0.899581 3.66554 1.70081 3.60951L8.95462 3.10224C9.75586 3.04621 10.4509 3.65032 10.5069 4.45156L11.1156 13.1562C11.1716 13.9574 10.5675 14.6523 9.76621 14.7084L2.51239 15.2156C1.71116 15.2716 1.01621 14.6675 0.960184 13.8663L0.351503 5.16172Z" fill="white" fill-opacity="0.5"/>
<path d="M1.71327 3.79066L8.96704 3.28342C9.66805 3.2344 10.276 3.76304 10.3251 4.46402L10.9338 13.1684C10.9828 13.8695 10.4543 14.4785 9.7533 14.5275L2.49953 15.0347C1.79853 15.0836 1.19036 14.5542 1.14134 13.8532L0.532676 5.14878C0.483796 4.44788 1.01237 3.83978 1.71327 3.79066Z" stroke="black" stroke-opacity="0.1" stroke-width="0.363576"/>
<path d="M1.82805 5.42311C1.81404 5.2228 1.96507 5.04906 2.16537 5.03506L8.69381 4.57854C8.89412 4.56454 9.06786 4.71556 9.08186 4.91587C9.09587 5.11618 8.94484 5.28992 8.74453 5.30392L2.2161 5.76044C2.01579 5.77444 1.84205 5.62342 1.82805 5.42311Z" fill="#4D4D4D" fill-opacity="0.2"/>
<path d="M1.90984 6.59108C1.89583 6.39077 2.04686 6.21703 2.24717 6.20303L8.77561 5.74651C8.97591 5.7325 9.14965 5.88353 9.16366 6.08384C9.17766 6.28415 9.02664 6.45789 8.82633 6.47189L2.29789 6.92841C2.09758 6.94241 1.92385 6.79139 1.90984 6.59108Z" fill="#4D4D4D" fill-opacity="0.2"/>
<path d="M1.99162 7.75922C1.97761 7.55891 2.12864 7.38517 2.32895 7.37117L6.68124 7.06682C6.88155 7.05281 7.05528 7.20384 7.06929 7.40415C7.0833 7.60446 6.93227 7.7782 6.73196 7.7922L2.37967 8.09654C2.17936 8.11055 2.00563 7.95952 1.99162 7.75922Z" fill="#4D4D4D" fill-opacity="0.2"/>
<path d="M2.07317 8.92907C2.05917 8.72876 2.21019 8.55502 2.4105 8.54102L4.58665 8.38884C4.78696 8.37484 4.96069 8.52586 4.9747 8.72617C4.98871 8.92648 4.83768 9.10022 4.63737 9.11423L2.46122 9.2664C2.26092 9.2804 2.08718 9.12938 2.07317 8.92907Z" fill="#4D4D4D" fill-opacity="0.2"/>
</g>
</g>
<defs>
<linearGradient id="paint0_linear_2005_6177" x1="7.44649" y1="1.70538" x2="11.2134" y2="14.6834" gradientUnits="userSpaceOnUse">
<stop stop-color="#6C8269"/>
<stop offset="1" stop-color="#E3F2E2"/>
</linearGradient>
<linearGradient id="paint1_linear_2005_6177" x1="4.57719" y1="0.773527" x2="10.15" y2="13.0846" gradientUnits="userSpaceOnUse">
<stop stop-color="#CEBE2E"/>
<stop offset="1" stop-color="#F2EFE2"/>
</linearGradient>
<linearGradient id="paint2_linear_2005_6177" x1="1.82942" y1="3.60048" x2="8.42369" y2="15.396" gradientUnits="userSpaceOnUse">
<stop stop-color="#425D8C"/>
<stop offset="1" stop-color="#E2E8F2"/>
</linearGradient>
<clipPath id="clip0_2005_6177">
<rect width="16" height="16" fill="white"/>
</clipPath>
</defs>
</svg>
