<svg width="81" height="65" viewBox="0 0 81 65" fill="none" xmlns="http://www.w3.org/2000/svg">
<path d="M20.0648 25.7563C30.8893 25.7563 39.6648 34.5319 39.6648 45.3563C39.6648 51.1396 37.1524 56.3356 33.1765 59.9176L33.178 59.9191C33.17 59.9263 33.1399 59.9506 33.0994 59.9859C29.6391 63.0707 25.0711 64.9563 20.0648 64.9563C15.0587 64.9563 10.4881 63.073 7.02736 59.9874C6.9886 59.9536 6.95962 59.9275 6.94872 59.9176C2.97439 56.3354 0.464844 51.1376 0.464844 45.3563C0.464844 34.5319 9.24039 25.7563 20.0648 25.7563Z" fill="url(#paint0_linear_2436_8418)"/>
<path d="M32.8086 45.2168C32.8086 38.1807 27.1052 32.4774 20.0691 32.4774C13.033 32.4774 7.32969 38.1807 7.32969 45.2168C7.32969 48.4227 8.51535 51.3503 10.4701 53.5895C11.7251 51.9888 13.6748 50.9563 15.8691 50.9563H24.2691C26.4632 50.9563 28.4118 51.9892 29.6668 53.5895C31.6219 51.3502 32.8086 48.4231 32.8086 45.2168ZM15.8691 53.4774C14.4016 53.4774 13.1019 54.2052 12.3158 55.3231C14.4638 56.9734 17.151 57.9563 20.0691 57.9563C22.9869 57.9563 25.6733 56.973 27.8211 55.3231C27.0349 54.2055 25.7364 53.4774 24.2691 53.4774H15.8691ZM24.4086 41.7168C24.4086 39.3199 22.4661 37.3774 20.0691 37.3774C17.6722 37.3774 15.7297 39.3199 15.7297 41.7168C15.7297 44.1138 17.6722 46.0563 20.0691 46.0563C22.4661 46.0563 24.4086 44.1138 24.4086 41.7168ZM35.3297 45.2168C35.3297 49.7216 33.3753 53.7684 30.2711 56.5618C30.2536 56.5776 30.2362 56.5933 30.2178 56.6083C27.5207 59.0128 23.9668 60.4774 20.0691 60.4774C16.1711 60.4774 12.6163 59.0132 9.91914 56.6083C9.90073 56.5933 9.88325 56.5776 9.86582 56.5618C6.76201 53.7685 4.80859 49.7213 4.80859 45.2168C4.80859 36.789 11.6413 29.9563 20.0691 29.9563C28.497 29.9563 35.3297 36.789 35.3297 45.2168ZM26.9297 41.7168C26.9297 45.5055 23.8578 48.5774 20.0691 48.5774C16.2805 48.5774 13.2086 45.5055 13.2086 41.7168C13.2086 37.9282 16.2805 34.8563 20.0691 34.8563C23.8578 34.8563 26.9297 37.9282 26.9297 41.7168Z" fill="#18181B" fill-opacity="0.9"/>
<path d="M65.6108 5.10925C66.3393 5.31 67.1535 5.56637 67.9176 5.98123C68.3952 6.24059 68.8281 6.53611 69.2177 6.84797L69.216 6.849C69.2896 6.90613 69.3613 6.96744 69.4331 7.03112L69.4349 7.03009C69.627 7.19416 69.865 7.40609 70.1063 7.66033C70.905 8.50202 71.4531 9.50581 71.9038 10.2864L75.2739 16.1237C75.7246 16.9043 76.3199 17.8808 76.6494 18.9934L76.7742 19.4696C76.8086 19.6198 76.8363 19.7612 76.8599 19.8885C76.8787 19.9804 76.893 20.0687 76.905 20.1545C76.9826 20.6578 77.0234 21.185 77.0092 21.7284C76.9865 22.5975 76.8014 23.4309 76.611 24.1621L73.6346 35.2702L73.1777 36.9416C73.0251 37.476 72.8703 37.9816 72.7074 38.4372C72.363 39.4003 71.8665 40.495 70.9727 41.4876C69.7266 42.8715 68.0744 43.8253 66.2529 44.2126C64.9464 44.4903 63.7501 44.373 62.7438 44.1897C62.2678 44.1029 61.7526 43.9842 61.2135 43.8491L59.5376 43.4091L50.2963 40.933C49.1512 40.6261 48.0409 40.3316 47.1293 40.0058C46.1662 39.6614 45.0716 39.1648 44.079 38.2711C42.6951 37.025 41.7412 35.3728 41.354 33.5512C41.0763 32.2448 41.1935 31.0485 41.3769 30.0422C41.5505 29.0899 41.8506 27.9811 42.1574 26.8359L46.1811 11.8193C46.488 10.6741 46.7824 9.56383 47.1083 8.65229C47.4527 7.68919 47.9493 6.59448 48.843 5.60193C50.0891 4.21807 51.7413 3.26415 53.5628 2.87691C54.8693 2.59922 56.0656 2.7165 57.0719 2.89983C58.0242 3.0734 59.133 3.37352 60.2781 3.68036L65.6108 5.10925Z" fill="url(#paint1_linear_2436_8418)"/>
<path d="M64.2963 35.6606C64.3681 35.6737 64.4286 35.681 64.4778 35.688C64.4963 35.6419 64.5202 35.5858 64.5448 35.5171M60.4627 16.4092C60.5465 15.9497 60.6836 15.4495 60.7742 15.1114M65.6108 5.10925C66.3393 5.31 67.1535 5.56637 67.9176 5.98123C68.3952 6.24059 68.8281 6.53611 69.2177 6.84797L69.216 6.849C69.2896 6.90613 69.3613 6.96744 69.4331 7.03112L69.4349 7.03009C69.627 7.19416 69.865 7.40609 70.1063 7.66033C70.905 8.50202 71.4531 9.50581 71.9038 10.2864L75.2739 16.1237C75.7246 16.9043 76.3199 17.8808 76.6494 18.9934L76.7742 19.4696C76.8086 19.6198 76.8363 19.7612 76.8599 19.8885C76.8787 19.9804 76.893 20.0687 76.905 20.1545C76.9826 20.6578 77.0234 21.185 77.0092 21.7284C76.9865 22.5975 76.8014 23.4309 76.611 24.1621L73.6346 35.2702L73.1777 36.9416C73.0251 37.476 72.8703 37.9816 72.7074 38.4372C72.363 39.4003 71.8665 40.495 70.9727 41.4876C69.7266 42.8715 68.0744 43.8253 66.2529 44.2126C64.9464 44.4903 63.7501 44.373 62.7438 44.1897C62.2678 44.1029 61.7526 43.9842 61.2135 43.8491L59.5376 43.4091L50.2963 40.933C49.1512 40.6261 48.0409 40.3316 47.1293 40.0058C46.1662 39.6614 45.0716 39.1648 44.079 38.2711C42.6951 37.025 41.7412 35.3728 41.354 33.5512C41.0763 32.2448 41.1935 31.0485 41.3769 30.0422C41.5505 29.0899 41.8506 27.9811 42.1574 26.8359L46.1811 11.8193C46.488 10.6741 46.7824 9.56383 47.1083 8.65229C47.4527 7.68919 47.9493 6.59448 48.843 5.60193C50.0891 4.21807 51.7413 3.26415 53.5628 2.87691C54.8693 2.59922 56.0656 2.7165 57.0719 2.89983C58.0242 3.0734 59.133 3.37352 60.2781 3.68036L65.6108 5.10925Z" stroke="#0B2247" stroke-opacity="0.07" stroke-linecap="round" stroke-linejoin="round"/>
<path d="M45.4968 27.2839L49.3343 12.9623C49.6387 11.826 49.8864 10.8985 50.1489 10.1639C50.4166 9.41542 50.7361 8.76034 51.2379 8.20296C52.0235 7.33051 53.0649 6.72927 54.2133 6.48514C54.9469 6.3292 55.674 6.38004 56.456 6.52253C57.2234 6.6624 58.1506 6.91173 59.2868 7.21618L63.7097 8.40129C64.6611 8.65622 65.341 8.83082 65.9504 9.16166C66.2401 9.319 66.5126 9.50428 66.7692 9.70968C66.8176 9.7449 66.8631 9.78291 66.9057 9.8241C67.0528 9.94976 67.1965 10.0796 67.33 10.2203C67.8072 10.7232 68.1509 11.335 68.6433 12.1879L71.8575 17.7549C72.3499 18.6079 72.7079 19.2113 72.9048 19.8761C72.9597 20.0617 73.0009 20.2505 73.0361 20.4403C73.0499 20.4953 73.0596 20.5513 73.066 20.6083C73.1166 20.936 73.1404 21.2677 73.1318 21.6002C73.1136 22.2933 72.9248 22.9694 72.6699 23.9209L70.0089 33.8519C69.7045 34.9881 69.4568 35.9157 69.1942 36.6502C68.9266 37.3987 68.6071 38.0538 68.1053 38.6112C67.3197 39.4836 66.2783 40.0849 65.1299 40.329C64.3963 40.4849 63.6692 40.4341 62.8872 40.2916C62.1198 40.1517 61.1926 39.9024 60.0564 39.5979L51.2429 37.2364C50.1067 36.9319 49.1791 36.6843 48.4446 36.4217C47.6961 36.1541 47.041 35.8346 46.4836 35.3327C45.6111 34.5471 45.0099 33.5057 44.7658 32.3574C44.6098 31.6237 44.6607 30.8967 44.8032 30.1146C44.943 29.3472 45.1924 28.4201 45.4968 27.2839ZM60.913 29.7903C61.5975 29.9737 62.004 30.6779 61.8206 31.3623C61.6372 32.0468 60.933 32.4534 60.2486 32.27L51.9864 30.0561C51.302 29.8727 50.8954 29.1685 51.0788 28.4841C51.2622 27.7996 51.9664 27.393 52.6509 27.5764L60.913 29.7903ZM65.1429 25.0201C65.8274 25.2035 66.234 25.9077 66.0506 26.5922C65.8672 27.2767 65.163 27.6832 64.4785 27.4998L53.4623 24.5481C52.7778 24.3647 52.3713 23.6604 52.5547 22.976C52.7381 22.2915 53.4423 21.8849 54.1267 22.0683L65.1429 25.0201ZM47.9765 27.9483C47.6612 29.125 47.4446 29.9332 47.3279 30.5735C47.2139 31.1989 47.218 31.553 47.2755 31.8235C47.4069 32.4419 47.731 33.0032 48.2008 33.4262C48.4063 33.6112 48.7109 33.7918 49.3095 34.0058C49.9224 34.2248 50.7306 34.4414 51.9073 34.7567L60.7208 37.1182C61.8976 37.4335 62.7058 37.6501 63.346 37.7669C63.9714 37.8809 64.3255 37.8767 64.596 37.8193C65.2144 37.6879 65.7757 37.3638 66.1988 36.8939C66.3837 36.6884 66.5644 36.3838 66.7783 35.7852C66.9974 35.1724 67.2139 34.3641 67.5292 33.1874L70.1902 23.2564C70.4155 22.4156 70.5128 22.0288 70.5486 21.7469L65.772 20.467C65.4072 20.3692 65.0588 20.2769 64.7736 20.175C64.4742 20.0679 64.1384 19.9152 63.8353 19.6425C63.4102 19.2597 63.1165 18.751 62.9976 18.1915C62.9129 17.7927 62.9486 17.4254 63.0056 17.1126C63.0599 16.8147 63.1541 16.4668 63.2519 16.102L64.5321 11.3241C64.2701 11.2142 63.8859 11.1062 63.0452 10.881L58.6224 9.6959C57.4456 9.3806 56.6374 9.16398 55.9972 9.04725C55.3718 8.93327 55.0177 8.93738 54.7472 8.99481C54.1288 9.12626 53.5675 9.45034 53.1444 9.92017C52.9594 10.1257 52.7788 10.4303 52.5648 11.0289C52.3458 11.6417 52.1293 12.45 51.814 13.6267L47.9765 27.9483ZM65.7316 16.7664C65.6229 17.172 65.5611 17.4018 65.5299 17.5728C65.5205 17.6244 65.5178 17.6588 65.516 17.6787C65.5213 17.6928 65.5295 17.7048 65.539 17.7165C65.5571 17.7249 65.5876 17.7409 65.6372 17.7587C65.8009 17.8172 66.0309 17.8786 66.4365 17.9873L69.5038 18.8092L66.5535 13.6991L65.7316 16.7664Z" fill="#18181B" fill-opacity="0.9"/>
<defs>
<linearGradient id="paint0_linear_2436_8418" x1="9.36764" y1="64.9563" x2="30.762" y2="25.7563" gradientUnits="userSpaceOnUse">
<stop stop-color="#F7CFFF"/>
<stop offset="1" stop-color="#F7CFFF" stop-opacity="0.3"/>
</linearGradient>
<linearGradient id="paint1_linear_2436_8418" x1="47.3235" y1="40.1364" x2="70.9218" y2="5.87159" gradientUnits="userSpaceOnUse">
<stop stop-color="#7DD3FC"/>
<stop offset="1" stop-color="#7DD3FC" stop-opacity="0.4"/>
</linearGradient>
</defs>
</svg>
