<svg width="99" height="59" viewBox="0 0 99 59" fill="none" xmlns="http://www.w3.org/2000/svg">
<path d="M29.497 2.83596C30.7418 2.56449 31.9967 2.28759 33.0781 2.13985C34.2291 1.98277 35.6505 1.898 37.1924 2.28154C39.3075 2.8078 41.1884 3.97359 42.5648 5.61143C43.5682 6.80545 44.0802 8.08724 44.4118 9.16322L44.4136 9.16438C44.7251 10.1754 44.9856 11.3929 45.2486 12.5989L46.7231 19.3598C46.9861 20.5657 47.2561 21.7812 47.3939 22.8301L47.3927 22.8319C47.5392 23.9483 47.6074 25.3269 47.1923 26.8302C46.6228 28.8925 45.3981 30.7355 43.6942 32.0947C42.452 33.0854 41.1259 33.5998 40.0141 33.9362L40.0128 33.938C39.9566 33.955 39.8987 33.9681 39.8413 33.9848C39.9752 34.2922 40.0828 34.6158 40.1568 34.955C40.7859 37.84 38.8815 40.706 35.9037 41.3554L23.2172 44.1221C20.2395 44.7715 17.3147 42.9587 16.6855 40.0737C16.6115 39.7346 16.5731 39.3957 16.5668 39.0607C16.5082 39.0693 16.4506 39.0813 16.3929 39.0891L16.391 39.088C15.2401 39.2451 13.8203 39.3295 12.2784 38.946C10.1633 38.4197 8.28237 37.2539 6.9059 35.6161C5.90256 34.422 5.39056 33.1403 5.05897 32.0643C4.74752 31.0532 4.4851 29.8346 4.22209 28.6286L2.74765 21.8677C2.48459 20.6615 2.21581 19.4446 2.07803 18.3956C1.93152 17.2792 1.86332 15.9006 2.27841 14.3973C2.84795 12.335 4.07264 10.492 5.77658 9.13285C7.01876 8.14214 8.34483 7.62773 9.45667 7.29133C10.5015 6.97537 11.7592 6.70431 13.004 6.43284L29.497 2.83596Z" fill="url(#paint0_linear_2436_8409)" stroke="#0B2247" stroke-opacity="0.07" stroke-linecap="round" stroke-linejoin="round"/>
<path d="M37.2547 14.6547C36.9809 13.3994 36.7933 12.5458 36.5955 11.8979C36.4029 11.2671 36.2362 10.9589 36.0695 10.7552C35.6683 10.2652 35.1223 9.91478 34.5098 9.75403C34.2551 9.68724 33.9056 9.66393 33.2518 9.7515C32.5804 9.84146 31.7262 10.0262 30.4708 10.3L15.2295 13.6239C13.9741 13.8977 13.1205 14.0854 12.4726 14.2831C11.8418 14.4757 11.5337 14.6424 11.33 14.8092C10.84 15.2104 10.4895 15.7563 10.3288 16.3689C10.262 16.6235 10.2387 16.9731 10.3262 17.6268C10.4162 18.2982 10.601 19.1524 10.8748 20.4078L12.281 26.8559C12.5548 28.1112 12.7424 28.9648 12.9402 29.6127C13.1328 30.2435 13.2995 30.5517 13.4662 30.7554C13.8674 31.2453 14.4134 31.5958 15.0259 31.7566C15.2806 31.8233 15.6301 31.8467 16.2839 31.7591C16.9553 31.6691 17.8095 31.4843 19.0649 31.2106L34.3062 27.8867C35.5616 27.6129 36.4152 27.4252 37.0631 27.2275C37.6939 27.0349 38.002 26.8681 38.2057 26.7014C38.6957 26.3002 39.0462 25.7542 39.2069 25.1417C39.2737 24.8871 39.297 24.5375 39.2095 23.8838C39.1195 23.2124 38.9347 22.3582 38.6609 21.1028L37.2547 14.6547ZM41.592 20.4636C41.8553 21.6706 42.073 22.6641 42.183 23.4851C42.2954 24.3235 42.3157 25.112 42.1085 25.9022C41.787 27.1279 41.0858 28.2202 40.1053 29.0228C39.4731 29.5403 38.7477 29.8501 37.9387 30.097C37.1464 30.3388 36.1525 30.5545 34.9455 30.8178L28.7903 32.1601L29.4296 35.0912L33.8262 34.1324C34.6356 33.9559 35.4349 34.4689 35.6114 35.2783C35.7879 36.0877 35.2748 36.887 34.4654 37.0635L22.741 39.6204C21.9316 39.7969 21.1324 39.2839 20.9558 38.4745C20.7793 37.6651 21.2924 36.8658 22.1018 36.6893L26.4984 35.7304L25.8592 32.7993L19.7041 34.1417C18.4971 34.4049 17.5035 34.6227 16.6825 34.7327C15.8441 34.845 15.0556 34.8653 14.2654 34.6581C13.0398 34.3366 11.9474 33.6354 11.1448 32.6549C10.6274 32.0228 10.3176 31.2974 10.0706 30.4884C9.8288 29.6961 9.6131 28.7021 9.34987 27.4951L7.94365 21.047C7.68042 19.84 7.46267 18.8465 7.35266 18.0254C7.24034 17.1871 7.21999 16.3986 7.42723 15.6083C7.74871 14.3827 8.44991 13.2904 9.43039 12.4878C10.0626 11.9703 10.788 11.6605 11.597 11.4136C12.3893 11.1718 13.3832 10.9561 14.5902 10.6928L29.8316 7.36891C31.0386 7.10568 32.0322 6.88793 32.8532 6.77792C33.6916 6.6656 34.4801 6.64525 35.2703 6.85249C36.4959 7.17397 37.5883 7.87517 38.3909 8.85565C38.9083 9.48782 39.2181 10.2132 39.4651 11.0222C39.7069 11.8145 39.9226 12.8085 40.1858 14.0155L41.592 20.4636Z" fill="#18181B" fill-opacity="0.9"/>
<path d="M74.5121 16.059C75.3285 16.2361 76.3911 16.5181 77.3473 17.0884L77.7116 17.3199C78.5461 17.8825 79.2665 18.6031 79.8297 19.4437L80.1171 19.9146C80.7354 21.03 81.006 22.2296 81.1917 22.9331L81.4759 24.0127L85.2258 24.7949C86.4608 25.0525 87.6581 25.2991 88.646 25.5908C89.6899 25.8992 90.8826 26.3614 91.9906 27.2516C93.5353 28.4929 94.6475 30.1914 95.1677 32.1035C95.5408 33.4749 95.4877 34.7531 95.353 35.8331C95.2255 36.8553 94.9728 38.0514 94.7153 39.2863L93.286 46.1384C93.0929 47.0646 92.9059 47.9695 92.7016 48.7807L92.4901 49.5586C92.1818 50.6025 91.7196 51.7951 90.8293 52.9031C89.588 54.4479 87.8896 55.5601 85.9774 56.0803C84.6059 56.4534 83.3279 56.4003 82.2478 56.2656C81.2256 56.1381 80.0296 55.8854 78.7946 55.6278L62.5996 52.2499C61.3646 51.9923 60.1673 51.7457 59.1794 51.4539C58.1356 51.1456 56.9428 50.6834 55.8349 49.7931C54.2901 48.5518 53.1779 46.8534 52.6577 44.9412C52.3312 43.7411 52.3305 42.6125 52.4257 41.6256L52.4724 41.2116C52.5999 40.1894 52.8526 38.9935 53.1102 37.7585L56.3581 22.1869C56.5248 21.3877 56.7028 20.5194 56.9189 19.7872C57.1515 18.9998 57.5313 17.9885 58.302 17.0289C59.3329 15.746 60.7445 14.8202 62.3327 14.3882C63.5207 14.0651 64.5989 14.1215 65.4138 14.2232C66.1716 14.3178 67.0397 14.502 67.8391 14.6688L73.791 15.9102L74.5121 16.059Z" fill="url(#paint1_linear_2436_8409)" stroke="#0B2247" stroke-opacity="0.07" stroke-linecap="round" stroke-linejoin="round"/>
<path d="M80.9317 35.911C80.5267 35.3165 79.7155 35.1626 79.1209 35.5676L72.5855 40.0193L71.0146 37.713C70.6096 37.1184 69.7983 36.9646 69.2037 37.3696C68.6092 37.7746 68.4553 38.5858 68.8603 39.1804L71.1649 42.5638C71.5699 43.1583 72.3811 43.3122 72.9757 42.9072L80.5883 37.7219C81.1829 37.3169 81.3367 36.5056 80.9317 35.911Z" fill="#18181B" fill-opacity="0.9"/>
<path d="M88.2407 38.0562C88.5024 36.8014 88.6822 35.9396 88.767 35.2601C88.8498 34.5963 88.8246 34.2246 88.7483 33.9438C88.5737 33.302 88.2001 32.7314 87.6815 32.3147C87.4547 32.1326 87.124 31.9608 86.4825 31.7714C85.8258 31.5775 84.9639 31.3978 83.7091 31.136L62.7113 26.7563L60.1692 38.9437C59.9075 40.1985 59.7277 41.0603 59.6429 41.7398C59.5601 42.4036 59.5853 42.7753 59.6616 43.0561C59.8362 43.6979 60.2098 44.2685 60.7284 44.6852C60.9552 44.8673 61.2859 45.0391 61.9274 45.2285C62.5841 45.4224 63.446 45.6022 64.7008 45.8639L79.9727 49.0493C81.2275 49.3111 82.0894 49.4909 82.7689 49.5757C83.4326 49.6585 83.8044 49.6333 84.0851 49.5569C84.727 49.3823 85.2975 49.0087 85.7142 48.4902C85.8964 48.2633 86.0681 47.9327 86.2576 47.2912C86.4515 46.6344 86.6312 45.7726 86.8929 44.5178L88.2407 38.0562ZM67.3135 21.5871C66.4696 21.411 65.9157 21.2954 65.4851 21.2416C65.0711 21.19 64.889 21.2125 64.7818 21.2416C64.4456 21.333 64.1457 21.5294 63.9274 21.8011C63.858 21.8877 63.7645 22.0456 63.6463 22.4457C63.5308 22.8371 63.422 23.3502 63.2628 24.112L75.9536 26.7591L75.5566 25.2547C75.2569 24.1189 75.1723 23.8657 75.0484 23.6808C74.9125 23.478 74.7336 23.3074 74.5239 23.1823C74.3328 23.0683 74.0758 22.9976 72.9261 22.7577L67.3135 21.5871ZM89.5372 45.0693C89.2845 46.2809 89.0791 47.27 88.8466 48.0572C88.6097 48.8593 88.3127 49.5663 87.8184 50.1815C87.0447 51.1445 85.9862 51.8376 84.7942 52.1619C84.0327 52.369 83.2659 52.3586 82.4359 52.2551C81.6215 52.1535 80.6328 51.9463 79.4212 51.6936L64.1493 48.5081C62.9376 48.2554 61.9486 48.0501 61.1614 47.8176C60.3593 47.5807 59.6522 47.2837 59.037 46.7894C58.0741 46.0156 57.3809 44.9572 57.0567 43.7652C56.8495 43.0037 56.86 42.2369 56.9635 41.4069C57.0651 40.5925 57.2722 39.6038 57.525 38.3921L60.5878 23.7082C60.7547 22.9079 60.8956 22.2276 61.057 21.6812C61.2228 21.1195 61.4416 20.5846 61.8232 20.1097C62.3986 19.3936 63.1863 18.8777 64.0727 18.6366C64.6606 18.4767 65.2384 18.49 65.8195 18.5625C66.3848 18.6331 67.0647 18.7759 67.865 18.9428L73.4776 20.1135C74.4359 20.3134 75.2342 20.463 75.9068 20.8641C76.4601 21.1942 76.9335 21.6428 77.2922 22.1781C77.7279 22.8287 77.9182 23.6184 78.168 24.5649L78.909 27.3755L84.2606 28.4918C85.4723 28.7445 86.4613 28.9498 87.2485 29.1823C88.0506 29.4192 88.7577 29.7162 89.3729 30.2105C90.3358 30.9843 91.029 32.0428 91.3532 33.2347C91.5604 33.9962 91.5499 34.763 91.4464 35.593C91.3448 36.4074 91.1377 37.3961 90.8849 38.6078L89.5372 45.0693Z" fill="#18181B" fill-opacity="0.9"/>
<defs>
<linearGradient id="paint0_linear_2436_8409" x1="7.57253" y1="43.9917" x2="41.3184" y2="1.84412" gradientUnits="userSpaceOnUse">
<stop stop-color="#BEF264"/>
<stop offset="1" stop-color="#BEF264" stop-opacity="0.4"/>
</linearGradient>
<linearGradient id="paint1_linear_2436_8409" x1="56.0697" y1="50.8879" x2="94.0149" y2="21.1515" gradientUnits="userSpaceOnUse">
<stop stop-color="#FDE68A"/>
<stop offset="1" stop-color="#FDE68A" stop-opacity="0.4"/>
</linearGradient>
</defs>
</svg>
